# Blender v2.78 (sub 0) OBJ File: 'fence.blend'
# www.blender.org
v -0.335130 0.720154 0.989015
v -0.335130 1.100087 0.989015
v -0.335130 0.720154 -1.010985
v -0.335130 1.100087 -1.010985
v -0.125062 0.720154 0.989015
v -0.125062 1.100087 0.989015
v -0.125062 0.720154 -1.010985
v -0.125062 1.100087 -1.010985
v 0.053866 -0.015570 -1.096947
v 0.053866 -0.015570 -0.550497
v -0.157802 -0.015570 -0.550498
v -0.157802 -0.015570 -1.096947
v 0.031369 1.636565 -1.038868
v 0.031368 1.636565 -0.608576
v -0.135306 1.636565 -0.608576
v -0.135305 1.636565 -1.038868
v 0.053866 -0.015570 -0.823722
v -0.157802 -0.015570 -0.823723
v 0.053866 1.984430 -0.823722
v -0.157802 1.984430 -0.823722
v 0.053866 -0.015570 -0.344134
v 0.053866 -0.015570 0.202316
v -0.157802 -0.015570 0.202316
v -0.157802 -0.015570 -0.344134
v 0.031369 1.636565 -0.286054
v 0.031368 1.636565 0.144238
v -0.135306 1.636565 0.144237
v -0.135305 1.636565 -0.286055
v 0.053866 -0.015570 -0.070909
v -0.157802 -0.015570 -0.070909
v 0.053866 1.984430 -0.070908
v -0.157802 1.984430 -0.070909
v 0.053866 -0.015570 0.453551
v 0.053866 -0.015570 1.000000
v -0.157802 -0.015570 1.000000
v -0.157802 -0.015570 0.453550
v 0.031369 1.636565 0.511630
v 0.031368 1.636565 0.941922
v -0.135306 1.636565 0.941921
v -0.135305 1.636565 0.511629
v 0.053866 -0.015570 0.726775
v -0.157802 -0.015570 0.726775
v 0.053866 1.984430 0.726776
v -0.157802 1.984430 0.726775
vt 0.0139 0.9847
vt 0.1019 0.5135
vt 0.1019 0.9847
vt 0.9375 0.6285
vt 0.9861 0.7152
vt 0.9375 0.7152
vt 0.1296 0.9847
vt 0.2176 0.5135
vt 0.2176 0.9847
vt 0.9375 0.5135
vt 0.9861 0.6002
vt 0.9375 0.6002
vt 0.8329 0.5135
vt 0.7843 0.9847
vt 0.7843 0.5135
vt 0.7079 0.9847
vt 0.7565 0.5135
vt 0.7565 0.9847
vt 0.8607 0.7349
vt 0.9097 0.6705
vt 0.9097 0.7349
vt 0.2454 0.5135
vt 0.2892 0.6055
vt 0.2506 0.6055
vt 0.6943 0.4853
vt 0.7441 0.0960
vt 0.7576 0.4853
vt 0.2944 0.9859
vt 0.2454 0.9859
vt 0.2314 0.4853
vt 0.2813 0.0960
vt 0.2947 0.4853
vt 0.5265 0.9859
vt 0.4827 0.6055
vt 0.5213 0.6055
vt 0.1816 0.0960
vt 0.1682 0.4853
vt 0.6445 0.0960
vt 0.6311 0.4853
vt 0.4775 0.5135
vt 0.5265 0.5135
vt 0.8607 0.7993
vt 0.9097 0.7993
vt 0.8607 0.5779
vt 0.9097 0.5135
vt 0.9097 0.5779
vt 0.3989 0.5135
vt 0.4427 0.6055
vt 0.4042 0.6055
vt 0.5400 0.4853
vt 0.5898 0.0960
vt 0.6033 0.4853
vt 0.4480 0.9859
vt 0.3989 0.9859
vt 0.0771 0.4853
vt 0.1270 0.0960
vt 0.1404 0.4853
vt 0.5543 0.5135
vt 0.5981 0.8939
vt 0.5595 0.8939
vt 0.0273 0.0960
vt 0.0139 0.4853
vt 0.4902 0.0960
vt 0.4768 0.4853
vt 0.6033 0.9859
vt 0.5543 0.9859
vt 0.8607 0.6423
vt 0.9097 0.6423
vt 0.8607 0.8919
vt 0.9097 0.8275
vt 0.9097 0.8919
vt 0.3222 0.5135
vt 0.3660 0.6055
vt 0.3274 0.6055
vt 0.8486 0.4853
vt 0.8984 0.0960
vt 0.9119 0.4853
vt 0.3712 0.9859
vt 0.3222 0.9859
vt 0.3857 0.4853
vt 0.4355 0.0960
vt 0.4490 0.4853
vt 0.6311 0.5135
vt 0.6749 0.8939
vt 0.6363 0.8939
vt 0.3359 0.0960
vt 0.3225 0.4853
vt 0.7988 0.0960
vt 0.7854 0.4853
vt 0.6801 0.9859
vt 0.6311 0.9859
vt 0.8607 0.9563
vt 0.9097 0.9563
vt 0.0139 0.5135
vt 0.9861 0.6285
vt 0.1296 0.5135
vt 0.9861 0.5135
vt 0.8329 0.9847
vt 0.7079 0.5135
vt 0.8607 0.6705
vt 0.2944 0.5135
vt 0.6943 0.0141
vt 0.2314 0.0141
vt 0.4775 0.9859
vt 0.8607 0.5135
vt 0.4480 0.5135
vt 0.5400 0.0141
vt 0.0771 0.0141
vt 0.6033 0.5135
vt 0.8607 0.8275
vt 0.3712 0.5135
vt 0.8486 0.0141
vt 0.3857 0.0141
vt 0.6801 0.5135
vn -1.0000 0.0000 0.0000
vn 0.0000 0.0000 -1.0000
vn 1.0000 0.0000 0.0000
vn 0.0000 0.0000 1.0000
vn 0.0000 -1.0000 0.0000
vn 0.0000 1.0000 0.0000
vn -0.0000 0.5260 0.8505
vn 0.9999 0.0136 0.0000
vn -0.0000 0.0351 0.9994
vn -0.9999 0.0136 -0.0000
vn 0.0000 0.0351 -0.9994
vn 0.0000 0.5260 -0.8505
vn 0.9946 -0.0000 0.1040
vn -0.9946 -0.0000 -0.1040
vn -0.9946 -0.0000 0.1040
vn 0.9946 0.0000 -0.1040
s off
f 2/1/1 3/2/1 1/3/1
f 4/4/2 7/5/2 3/6/2
f 8/7/3 5/8/3 7/9/3
f 6/10/4 1/11/4 5/12/4
f 7/13/5 1/14/5 3/15/5
f 4/16/6 6/17/6 8/18/6
f 17/19/5 11/20/5 18/21/5
f 19/22/7 15/23/7 14/24/7
f 17/25/8 14/26/8 10/27/8
f 14/24/9 11/28/9 10/29/9
f 18/30/10 16/31/10 12/32/10
f 9/33/11 16/34/11 13/35/11
f 15/36/10 18/30/10 11/37/10
f 13/38/8 17/25/8 9/39/8
f 13/35/12 20/40/12 19/41/12
f 9/42/5 18/21/5 12/43/5
f 29/44/5 23/45/5 30/46/5
f 31/47/7 27/48/7 26/49/7
f 29/50/8 26/51/8 22/52/8
f 26/49/9 23/53/9 22/54/9
f 30/55/10 28/56/10 24/57/10
f 21/58/11 28/59/11 25/60/11
f 27/61/10 30/55/10 23/62/10
f 25/63/8 29/50/8 21/64/8
f 25/60/12 32/65/12 31/66/12
f 21/67/5 30/46/5 24/68/5
f 41/69/5 35/70/5 42/71/5
f 43/72/7 39/73/7 38/74/7
f 41/75/8 38/76/8 34/77/8
f 38/74/9 35/78/9 34/79/9
f 42/80/10 40/81/10 36/82/10
f 33/83/11 40/84/11 37/85/11
f 39/86/10 42/80/10 35/87/10
f 37/88/8 41/75/8 33/89/8
f 37/85/12 44/90/12 43/91/12
f 33/92/5 42/71/5 36/93/5
f 2/1/1 4/94/1 3/2/1
f 4/4/2 8/95/2 7/5/2
f 8/7/3 6/96/3 5/8/3
f 6/10/4 2/97/4 1/11/4
f 7/13/5 5/98/5 1/14/5
f 4/16/6 2/99/6 6/17/6
f 17/19/5 10/100/5 11/20/5
f 19/22/7 20/101/7 15/23/7
f 17/25/13 19/102/13 14/26/13
f 14/24/9 15/23/9 11/28/9
f 18/30/14 20/103/14 16/31/14
f 9/33/11 12/104/11 16/34/11
f 15/36/15 20/103/15 18/30/15
f 13/38/16 19/102/16 17/25/16
f 13/35/12 16/34/12 20/40/12
f 9/42/5 17/19/5 18/21/5
f 29/44/5 22/105/5 23/45/5
f 31/47/7 32/106/7 27/48/7
f 29/50/13 31/107/13 26/51/13
f 26/49/9 27/48/9 23/53/9
f 30/55/14 32/108/14 28/56/14
f 21/58/11 24/109/11 28/59/11
f 27/61/15 32/108/15 30/55/15
f 25/63/16 31/107/16 29/50/16
f 25/60/12 28/59/12 32/65/12
f 21/67/5 29/44/5 30/46/5
f 41/69/5 34/110/5 35/70/5
f 43/72/7 44/111/7 39/73/7
f 41/75/13 43/112/13 38/76/13
f 38/74/9 39/73/9 35/78/9
f 42/80/14 44/113/14 40/81/14
f 33/83/11 36/114/11 40/84/11
f 39/86/15 44/113/15 42/80/15
f 37/88/16 43/112/16 41/75/16
f 37/85/12 40/84/12 44/90/12
f 33/92/5 41/69/5 42/71/5
