# Blender v2.78 (sub 0) OBJ File: 'manPants.blend'
# www.blender.org
v 0.000000 2.139970 -0.764923
v 0.369052 1.624509 -0.517517
v 0.100632 1.574187 -0.060449
v 0.849164 1.689322 -0.499100
v -0.100632 1.574187 -0.060449
v 1.063147 2.894759 -0.488160
v -0.369052 1.624509 -0.517517
v 0.000000 2.894759 -0.714607
v -0.849164 1.689322 -0.499100
v -1.063147 2.894759 -0.488160
v 1.317575 1.725150 -0.065791
v 1.380205 2.894759 -0.060449
v -1.317575 1.725125 -0.065791
v 1.364635 1.725150 0.417680
v 1.474323 2.894759 0.442761
v -1.380205 2.894759 -0.060449
v -1.364635 1.725125 0.417680
v -1.474323 2.894759 0.442761
v 0.100632 1.574187 0.971104
v 0.366151 1.644058 1.337766
v 0.352262 2.064462 1.549813
v 0.000000 1.974816 1.544217
v -0.100632 1.574187 0.971104
v 0.000000 2.123690 1.655636
v 1.029467 2.074502 1.236623
v 0.539892 2.894759 1.676494
v 1.079783 2.894759 1.449181
v -0.352262 2.064462 1.549813
v -0.366151 1.644058 1.337766
v 1.012680 1.662274 1.195873
v 1.357057 2.894759 0.945971
v 0.000000 2.894759 1.751078
v -1.029467 2.074476 1.236623
v -1.012680 1.662249 1.195873
v -0.539892 2.894759 1.676494
v -1.079783 2.894759 1.449181
v -1.357057 2.894759 0.945971
vt 0.3952 0.7274
vt 0.3325 0.6447
vt 0.3952 0.5675
vt 0.9017 0.9888
vt 0.9770 0.8764
vt 0.9945 0.9181
vt 0.8860 0.1788
vt 0.7744 0.2516
vt 0.7591 0.2168
vt 0.7525 0.8540
vt 0.3214 0.5675
vt 0.3214 0.7274
vt 0.2587 0.6502
vt 0.7631 0.9780
vt 0.1549 0.5675
vt 0.2476 0.6381
vt 0.2302 0.6799
vt 0.0057 0.7023
vt 0.0163 0.5783
vt 0.9686 0.7642
vt 0.7524 0.7550
vt 0.2217 0.7921
vt 0.9721 0.6772
vt 0.7555 0.6608
vt 0.0055 0.8013
vt 0.2253 0.8791
vt 0.0087 0.8955
vt 0.7413 0.8023
vt 0.7122 0.8611
vt 0.6272 0.8611
vt 0.6007 0.3323
vt 0.5230 0.4208
vt 0.4970 0.3595
vt 0.5854 0.2975
vt 0.6118 0.7971
vt 0.6435 0.7953
vt 0.6396 0.9805
vt 0.4727 0.8943
vt 0.4830 0.9901
vt 0.4693 0.2989
vt 0.6272 0.7286
vt 0.7413 0.7644
vt 0.7122 0.7233
vt 0.7153 0.9790
vt 0.7687 0.5190
vt 0.9187 0.5620
vt 0.7612 0.5835
vt 0.4693 0.7946
vt 0.6396 0.5932
vt 0.7153 0.5980
vt 0.4727 0.6912
vt 0.4830 0.5839
vt 0.0144 0.9728
vt 0.9945 0.5715
vt 0.1718 0.9943
vt 0.2476 0.9848
vt 0.5058 0.5190
vt 0.0422 0.1370
vt 0.1019 0.0442
vt 0.2027 0.0100
vt 0.2981 0.0057
vt 0.3863 0.0408
vt 0.4532 0.1149
vt 0.4582 0.3213
vt 0.3810 0.5118
vt 0.2925 0.5561
vt 0.1979 0.5561
vt 0.1105 0.5166
vt 0.0285 0.4473
vt 0.0055 0.3386
vt 0.0103 0.2352
vt 0.5035 0.2802
vt 0.4782 0.1572
vt 0.5825 0.0354
vt 0.6675 0.0057
vt 0.7761 0.0529
vt 0.8157 0.1345
vt 0.8719 0.2623
vt 0.9054 0.3467
vt 0.8681 0.4617
vt 0.7903 0.5076
vt 0.6324 0.5076
vt 0.5592 0.4069
vn 0.0000 -0.2311 -0.9729
vn -0.2602 -0.5629 -0.7845
vn -0.2385 -0.7735 -0.5872
vn 0.4264 -0.1448 -0.8929
vn 0.2385 -0.7735 -0.5872
vn 0.5598 -0.0339 -0.8279
vn 0.2602 -0.5629 -0.7845
vn 0.0000 0.0665 -0.9978
vn -0.4264 -0.1448 -0.8929
vn -0.5598 -0.0339 -0.8279
vn 0.8996 -0.0792 -0.4296
vn 0.9205 -0.0618 -0.3858
vn -0.8996 -0.0792 -0.4296
vn 0.9909 -0.0620 -0.1193
vn 0.9792 -0.0879 -0.1831
vn -0.9205 -0.0618 -0.3858
vn -0.9909 -0.0620 -0.1193
vn -0.9792 -0.0879 -0.1831
vn -0.1377 -0.7642 0.6302
vn -0.3058 -0.3835 0.8714
vn 0.2310 -0.4247 0.8754
vn -0.0000 -0.7213 0.6927
vn 0.1377 -0.7642 0.6302
vn -0.0000 -0.3649 0.9311
vn 0.6699 -0.2074 0.7129
vn 0.2877 -0.1896 0.9388
vn 0.6413 -0.2195 0.7352
vn -0.2310 -0.4247 0.8754
vn 0.3058 -0.3835 0.8714
vn 0.6245 -0.1020 0.7743
vn 0.9139 -0.1521 0.3763
vn 0.0000 -0.1228 0.9924
vn -0.6699 -0.2074 0.7129
vn -0.6245 -0.1020 0.7743
vn -0.2877 -0.1896 0.9388
vn -0.6413 -0.2195 0.7352
vn 0.9142 -0.1389 0.3806
vn 0.9694 -0.0958 0.2259
vn -0.9139 -0.1521 0.3763
vn -0.9694 -0.0958 0.2259
vn -0.9142 -0.1389 0.3806
vn 0.0000 1.0000 0.0000
vn 0.0000 -1.0000 -0.0069
s 1
f 1/1/1 2/2/2 3/3/3
f 1/4/1 4/5/4 2/6/2
f 1/7/1 3/8/3 5/9/5
f 1/4/1 6/10/6 4/5/4
f 1/11/1 5/12/5 7/13/7
f 1/4/1 8/14/8 6/10/6
f 1/15/1 7/16/7 9/17/9
f 1/15/1 10/18/10 8/19/8
f 1/15/1 9/17/9 10/18/10
f 6/10/6 11/20/11 4/5/4
f 6/10/6 12/21/12 11/20/11
f 9/17/9 13/22/13 10/18/10
f 12/21/12 14/23/14 11/20/11
f 12/21/12 15/24/15 14/23/14
f 10/18/10 13/22/13 16/25/16
f 16/25/16 17/26/17 18/27/18
f 19/28/19 20/29/20 21/30/21
f 19/31/19 21/32/21 22/33/22
f 19/31/19 22/33/22 23/34/23
f 21/30/21 24/35/24 22/36/22
f 21/30/21 20/29/20 25/37/25
f 21/30/21 26/38/26 24/35/24
f 21/30/21 27/39/27 26/38/26
f 21/30/21 25/37/25 27/39/27
f 23/34/23 22/33/22 28/40/28
f 22/36/22 24/35/24 28/41/28
f 23/42/23 28/41/28 29/43/29
f 20/29/20 30/44/30 25/37/25
f 27/45/27 25/46/25 31/47/31
f 26/38/26 32/48/32 24/35/24
f 29/43/29 28/41/28 33/49/33
f 29/43/29 33/49/33 34/50/34
f 32/48/32 35/51/35 24/35/24
f 24/35/24 35/51/35 28/41/28
f 36/52/36 28/41/28 35/51/35
f 31/47/31 14/23/37 15/24/38
f 37/53/39 18/27/40 17/26/41
f 13/22/13 17/26/17 16/25/16
f 25/46/25 30/54/30 14/23/37
f 25/46/25 14/23/37 31/47/31
f 33/55/33 17/26/41 34/56/34
f 33/49/33 28/41/28 36/52/36
f 33/55/33 37/53/39 17/26/41
f 33/49/33 36/52/36 37/57/39
f 26/58/42 27/59/42 31/60/42 15/61/42 12/62/42 6/63/42 8/64/42 10/65/42 16/66/42 18/67/42 37/68/42 36/69/42 35/70/42 32/71/42
f 23/34/43 29/72/43 34/73/43 17/74/43 13/75/43 9/76/43 7/77/43 5/9/43 3/8/43 2/78/43 4/79/43 11/80/43 14/81/43 30/82/43 20/83/43 19/31/43
