# Blender v2.78 (sub 0) OBJ File: 'manArm.blend'
# www.blender.org
v 3.880236 2.010417 0.002232
v 3.975996 1.463737 0.536322
v 3.975996 2.627079 0.498876
v 1.850088 2.388635 0.508498
v -0.339408 2.385919 0.262573
v -0.268189 1.966730 0.551130
v 2.616191 2.010417 0.597046
v 2.616191 2.388635 0.490422
v 3.975996 2.817223 0.002231
v 2.233147 2.561693 0.004833
v -0.339408 2.385919 -0.262566
v 1.850088 2.431497 -0.558452
v -0.268189 1.966730 -0.551123
v 1.850088 2.010417 -0.650995
v 2.616191 2.431497 -0.499800
v 2.616191 2.010417 -0.592344
v 3.975996 2.010417 -0.722896
v 3.975996 2.627079 -0.494411
v -0.137258 1.491219 0.324810
v -0.137258 1.491219 -0.324804
v 2.233147 1.459140 0.004832
v 1.850088 1.577424 0.517300
v 1.850088 2.010417 0.615126
v 2.616191 1.577424 0.499220
v 3.975996 1.203650 0.002231
v 3.975996 2.010417 0.810041
v 1.850088 1.618793 -0.542502
v 2.616191 1.618793 -0.483846
v 3.975996 1.463737 -0.531857
v 3.975996 2.212664 -0.402262
v 3.975996 1.808169 -0.402262
v 4.466867 2.010417 -0.925933
v 4.466867 2.534383 -0.677172
v 3.975996 2.414911 0.002231
v 3.975996 2.212664 0.406727
v 4.466867 2.572687 0.638874
v 4.466867 2.821436 0.000003
v 5.170481 2.630144 0.696331
v 5.170481 2.878892 0.000004
v 5.668017 2.355156 0.000003
v 5.668017 2.010417 0.505024
v 5.737998 2.010417 0.000003
v 5.642238 1.608221 0.000003
v 5.668017 2.010417 -0.524169
v 5.584781 1.665908 -0.401979
v 5.170481 2.010417 -0.983389
v 5.170481 2.591839 -0.734629
v 4.466867 1.505603 -0.677173
v 5.170481 1.467299 -0.734629
v 5.170481 1.256854 0.000003
v 4.466867 1.295158 0.000003
v 4.466867 1.467299 0.638874
v 5.170481 1.428994 0.696331
v 5.584781 1.665908 0.401985
v 5.170481 2.010417 0.945091
v 4.466867 2.010417 0.887635
v 3.975996 1.605923 0.002231
v 3.267365 2.010417 0.002232
v 3.975996 1.808169 0.406727
vt 0.9467 0.5776
vt 0.8975 0.4712
vt 0.9975 0.5088
vt 0.8644 0.5776
vt 0.7984 0.4214
vt 0.8487 0.3642
vt 0.9222 0.3574
vt 0.4720 0.3195
vt 0.4232 0.0028
vt 0.4776 0.0017
vt 0.2356 0.0017
vt 0.2383 0.3135
vt 0.1883 0.3141
vt 0.2423 0.4258
vt 0.1922 0.4265
vt 0.2448 0.6272
vt 0.1657 0.6272
vt 0.4043 0.6388
vt 0.4752 0.4303
vt 0.4776 0.6334
vt 0.4013 0.3798
vt 0.3531 0.0031
vt 0.3280 0.3212
vt 0.1496 0.3258
vt 0.1005 0.0113
vt 0.1625 0.0017
vt 0.0904 0.3231
vt 0.3415 0.4320
vt 0.1450 0.4376
vt 0.0857 0.4349
vt 0.0745 0.6355
vt 0.3450 0.6339
vt 0.1625 0.6385
vt 0.6070 0.6077
vt 0.5178 0.6077
vt 0.5584 0.2607
vt 0.6274 0.3187
vt 0.2996 0.3110
vt 0.3056 0.0172
vt 0.6233 0.2068
vt 0.3035 0.4233
vt 0.5591 0.0017
vt 0.6275 0.0061
vt 0.3248 0.6229
vt 0.0377 0.3189
vt 0.0369 0.0245
vt 0.4811 0.3194
vt 0.4875 0.2075
vt 0.0331 0.4306
vt 0.4808 0.0061
vt 0.0016 0.6291
vt 0.4318 0.6422
vt 0.4471 0.7519
vt 0.3914 0.7472
vt 0.4075 0.8261
vt 0.4828 0.8300
vt 0.0623 0.7459
vt 0.1084 0.7543
vt 0.0125 0.8224
vt 0.1250 0.6419
vt 0.1701 0.7529
vt 0.1864 0.8348
vt 0.0918 0.8353
vt 0.1908 0.9386
vt 0.0885 0.9386
vt 0.7020 0.8228
vt 0.6307 0.8111
vt 0.6814 0.7166
vt 0.7612 0.7584
vt 0.7490 0.8313
vt 0.8040 0.8419
vt 0.7365 0.9075
vt 0.7865 0.8989
vt 0.7257 0.9757
vt 0.0016 0.9252
vt 0.4828 0.9342
vt 0.3995 0.9296
vt 0.6522 0.9248
vt 0.4005 0.9983
vt 0.3412 0.8180
vt 0.8058 0.9535
vt 0.3280 0.9210
vt 0.8272 0.2969
vt 0.7816 0.3500
vt 0.7225 0.2906
vt 0.7248 0.3540
vt 0.7303 0.1874
vt 0.8272 0.1930
vt 0.6464 0.1765
vt 0.6307 0.2789
vt 0.6716 0.3395
vt 0.8058 0.7824
vt 0.6528 0.3747
vt 0.7007 0.3574
vt 0.7147 0.4262
vt 0.7952 0.4208
vt 0.7952 0.5250
vt 0.6307 0.4356
vt 0.7225 0.5297
vt 0.7480 0.6034
vt 0.6438 0.5386
vt 0.7413 0.1111
vt 0.8007 0.1133
vt 0.7566 0.0017
vt 0.6900 0.1028
vt 0.6926 0.6084
vt 0.7222 0.7132
vt 0.9984 0.4189
vt 0.8074 0.5176
vt 0.1977 0.6730
vt 0.2565 0.6306
vt 0.3248 0.6639
vt 0.3248 0.7595
vt 0.2565 0.7928
vt 0.1977 0.7503
vn 0.9914 0.1177 -0.0573
vn 0.9914 0.1177 0.0573
vn 0.9920 -0.1177 0.0451
vn 0.9920 -0.1177 -0.0451
vn -0.0182 0.6909 0.7228
vn -0.0866 0.8938 0.4401
vn -0.0878 0.5262 0.8458
vn -0.0061 0.2713 0.9625
vn -0.0644 0.2708 0.9605
vn -0.0825 0.6587 0.7478
vn -0.0964 0.4172 0.9037
vn -0.1358 0.7513 0.6459
vn -0.1549 0.9879 0.0093
vn -0.0522 0.9975 0.0481
vn -0.1024 0.8961 -0.4320
vn -0.0111 0.7027 -0.7114
vn -0.1156 0.5135 -0.8503
vn 0.0116 0.2146 -0.9766
vn -0.0531 0.6693 -0.7411
vn -0.0095 0.2146 -0.9766
vn -0.0556 0.3213 -0.9453
vn -0.1006 0.7181 -0.6886
vn -0.0450 -0.8342 0.5497
vn -0.0447 -0.8346 -0.5490
vn -0.0317 -0.9989 -0.0337
vn 0.0056 -0.6946 0.7194
vn -0.0611 -0.4114 0.9094
vn -0.0008 -0.2204 0.9754
vn -0.0812 -0.6776 0.7309
vn -0.1211 -0.9926 -0.0088
vn -0.0787 -0.7143 0.6954
vn -0.0804 -0.4022 0.9120
vn -0.0650 -0.2199 0.9733
vn 0.0223 -0.6821 -0.7309
vn -0.0654 -0.4205 -0.9049
vn 0.0171 -0.2669 -0.9636
vn -0.0515 -0.6664 -0.7438
vn -0.1025 -0.6717 -0.7337
vn -0.0748 -0.3174 -0.9453
vn -0.0094 -0.2670 -0.9637
vn -0.4957 -0.0000 -0.8685
vn -0.6481 0.4195 -0.6356
vn -0.6429 -0.4261 -0.6365
vn -0.3739 -0.0115 -0.9274
vn -0.3707 0.6730 -0.6401
vn -0.5971 0.8022 -0.0037
vn -0.4547 0.7966 -0.3983
vn -0.4547 0.7966 0.3983
vn -0.6396 0.4103 0.6500
vn -0.3656 0.6722 0.6438
vn -0.3574 0.9338 -0.0178
vn 0.3142 0.6883 0.6538
vn 0.3249 0.9456 -0.0172
vn 0.8709 0.4914 -0.0006
vn 0.8700 0.0330 0.4919
vn 0.9999 -0.0164 0.0024
vn 0.8249 -0.5652 0.0008
vn 0.8736 0.0304 -0.4856
vn 0.7670 -0.5274 -0.3654
vn 0.3009 -0.0199 -0.9535
vn 0.3146 0.6909 -0.6509
vn -0.3453 -0.7062 -0.6181
vn 0.2885 -0.7099 -0.6426
vn 0.2694 -0.9630 -0.0114
vn -0.3114 -0.9503 -0.0003
vn -0.3564 -0.7215 0.5937
vn 0.2874 -0.7222 0.6291
vn 0.7716 -0.5109 0.3789
vn 0.2912 -0.0097 0.9566
vn -0.3568 -0.0020 0.9342
vn -0.5370 -0.8431 0.0282
vn -0.4547 -0.7966 -0.3983
vn -0.6219 -0.4463 0.6435
vn -0.4547 -0.7966 0.3983
vn -0.4957 -0.0000 0.8685
vn 0.9930 -0.0001 -0.1177
vn 1.0000 0.0015 0.0035
vn 0.9927 -0.0900 -0.0797
vn 0.9922 0.0885 -0.0873
vn 0.9922 0.0839 0.0920
vn 0.9914 -0.0010 0.1309
vn 0.9927 -0.0866 0.0839
vn -0.9750 -0.2222 -0.0000
s off
f 25/1/1 1/2/1 2/3/1
f 29/4/2 1/2/2 25/1/2
f 1/2/3 18/5/3 9/6/3
f 1/2/4 9/6/4 3/7/4
s 1
f 4/8/5 5/9/6 6/10/7
f 6/11/7 23/12/8 4/13/5
f 23/12/8 7/14/9 4/13/5
f 7/14/9 8/15/10 4/13/5
f 7/14/9 26/16/11 8/15/10
f 8/15/10 26/16/11 3/17/12
f 9/18/13 8/19/10 3/20/12
f 10/21/14 8/19/10 9/18/13
f 10/21/14 4/8/5 8/19/10
f 10/21/14 11/22/15 5/9/6
f 5/9/6 4/8/5 10/21/14
f 11/22/15 10/21/14 12/23/16
f 12/24/16 13/25/17 11/26/15
f 13/25/17 12/24/16 14/27/18
f 10/21/14 15/28/19 12/23/16
f 14/27/18 12/24/16 15/29/19
f 10/21/14 9/18/13 15/28/19
f 16/30/20 14/27/18 15/29/19
f 17/31/21 16/30/20 15/29/19
f 15/28/19 9/18/13 18/32/22
f 17/31/21 15/29/19 18/33/22
f 19/34/23 20/35/24 21/36/25
f 19/34/23 21/36/25 22/37/26
f 22/38/26 6/11/27 19/39/23
f 6/11/27 22/38/26 23/12/28
f 22/37/26 21/36/25 24/40/29
f 22/38/26 24/41/29 23/12/28
f 24/40/29 21/36/25 25/42/30
f 24/40/29 25/42/30 2/43/31
f 24/41/29 2/44/31 26/16/32
f 24/41/29 26/16/32 7/14/33
f 24/41/29 7/14/33 23/12/28
f 27/45/34 20/46/24 13/25/35
f 20/35/24 27/47/34 21/36/25
f 13/25/35 14/27/36 27/45/34
f 28/48/37 25/42/30 21/36/25
f 27/45/34 14/27/36 28/49/37
f 27/47/34 28/48/37 21/36/25
f 28/48/37 29/50/38 25/42/30
f 28/49/37 17/31/39 29/51/38
f 14/27/36 16/30/40 28/49/37
f 28/49/37 16/30/40 17/31/39
f 58/52/41 30/53/42 31/54/43
f 30/53/42 32/55/44 31/54/43
f 30/53/42 33/56/45 32/55/44
f 30/57/42 34/58/46 33/59/45
f 58/60/47 34/58/46 30/57/42
f 58/60/48 35/61/49 34/58/46
f 34/58/46 35/61/49 36/62/50
f 37/63/51 34/58/46 36/62/50
f 33/59/45 34/58/46 37/63/51
f 37/63/51 36/62/50 38/64/52
f 39/65/53 37/63/51 38/64/52
f 33/59/45 37/63/51 39/65/53
f 40/66/54 39/67/53 38/68/52
f 40/66/54 38/68/52 41/69/55
f 41/69/55 42/70/56 40/66/54
f 43/71/57 42/70/56 41/69/55
f 44/72/58 42/70/56 43/71/57
f 44/72/58 40/66/54 42/70/56
f 45/73/59 44/72/58 43/71/57
f 46/74/60 44/72/58 45/73/59
f 47/75/61 33/59/45 39/65/53
f 32/55/44 33/56/45 47/76/61
f 46/77/60 32/55/44 47/76/61
f 40/66/54 47/78/61 39/67/53
f 44/79/58 46/77/60 47/76/61
f 44/72/58 47/78/61 40/66/54
f 48/80/62 31/54/43 32/55/44
f 48/80/62 32/55/44 46/77/60
f 49/81/63 46/74/60 45/73/59
f 49/82/63 48/80/62 46/77/60
f 49/83/63 45/84/59 50/85/64
f 45/84/59 43/86/57 50/85/64
f 51/87/65 48/88/62 49/83/63
f 50/85/64 51/87/65 49/83/63
f 52/89/66 51/87/65 50/85/64
f 53/90/67 52/89/66 50/85/64
f 50/85/64 43/86/57 54/91/68
f 54/92/68 43/71/57 41/69/55
f 53/90/67 50/85/64 54/91/68
f 54/93/68 41/94/55 55/95/69
f 41/94/55 38/96/52 55/95/69
f 38/96/52 36/97/50 55/95/69
f 53/98/67 54/93/68 55/95/69
f 55/95/69 56/99/70 53/98/67
f 36/97/50 56/99/70 55/95/69
f 36/97/50 35/100/49 56/99/70
f 56/99/70 52/101/66 53/98/67
f 57/102/71 48/88/62 51/87/65
f 57/102/71 31/103/43 48/88/62
f 58/104/72 31/103/43 57/102/71
f 52/89/66 59/105/73 51/87/65
f 59/105/73 57/102/71 51/87/65
f 56/99/70 59/106/73 52/101/66
f 59/106/73 56/99/70 35/100/49
f 58/104/74 57/102/71 59/105/73
f 58/107/75 59/106/73 35/100/49
f 26/108/76 1/2/77 3/7/78
f 2/3/79 1/2/77 26/108/76
f 29/4/80 17/109/81 1/2/77
f 1/2/77 17/109/81 18/5/82
f 11/110/83 13/111/83 20/112/83 19/113/83 6/114/83 5/115/83
