# Blender v2.78 (sub 0) OBJ File: 'manLeg.blend'
# www.blender.org
v 0.551831 4.065681 -0.941387
v 0.206799 2.374681 -0.063973
v 0.296216 4.017761 -0.506123
v 1.009040 4.127403 -0.923848
v 0.898507 2.810992 -0.743547
v 1.455105 4.161522 -0.511210
v 0.898507 2.115980 -0.802011
v 0.214585 2.043754 -0.063973
v 0.438060 0.559179 -0.008948
v 1.582495 2.043764 -0.063973
v 1.359021 0.559186 -0.008948
v 0.296216 4.017761 0.476219
v 0.591003 2.214212 0.637468
v 0.549068 4.084299 0.825389
v 0.296216 4.017761 -0.014952
v 1.206078 2.214215 0.637468
v 1.175319 1.987634 0.587570
v 0.621759 1.987628 0.587570
v 1.164755 4.101645 0.690265
v 1.600662 2.374687 -0.063973
v 0.642717 0.639835 0.591787
v 0.898507 0.923528 0.032710
v 1.154361 0.639839 0.591787
v 0.898507 0.649508 -0.614551
v 1.499920 4.161522 -0.050804
v 1.485329 0.004026 1.116022
v 0.641851 0.004016 1.440932
v 0.342883 0.004012 -0.000014
v 0.447017 0.004014 -0.476463
v 0.252412 1.192577 -0.099536
v 0.364040 0.389097 -0.048722
v 0.898552 1.192584 -0.749889
v 0.446413 0.511435 0.318610
v 0.898552 1.238249 -0.521126
v 0.637095 1.192580 0.669529
v 0.435509 1.238245 -0.055074
v 0.711176 1.238248 0.496058
v 0.898558 0.517475 -0.697637
v 0.642281 0.639810 0.685908
v 0.353277 0.448634 0.358460
v 1.085928 1.238252 0.496058
v 0.409641 0.260725 -0.451824
v 0.898558 0.324916 -0.719834
v 1.160012 1.192587 0.669529
v 0.898561 0.004019 -0.672231
v 1.212566 0.639819 0.685908
v 1.544661 1.192593 -0.099536
v 1.361562 1.238255 -0.055074
v 0.249110 0.004011 0.706000
v 1.404291 0.511448 0.318610
v 1.515545 0.448650 0.358460
v 1.483121 0.408701 0.735818
v 1.595447 0.181375 0.706000
v 1.422444 0.389110 -0.048722
v 1.470420 0.004026 -0.000014
v 1.582913 0.004028 0.706000
v 0.898558 0.575629 -0.680690
v 1.396201 0.260737 -0.449151
v 1.341946 0.004025 -0.479171
v 0.898558 0.264909 1.356184
v 0.482217 0.244712 1.211264
v 1.389247 0.244723 1.211264
v 1.155272 0.004022 1.440932
v 0.349099 0.004012 1.116022
v 0.250647 0.181359 0.706000
v 0.375542 0.420353 0.735818
v 0.596882 0.629595 0.784628
v 1.220422 0.629605 0.784628
v 0.898555 1.053279 0.015096
vt 0.6931 0.2709
vt 0.8766 0.2993
vt 0.8150 0.3419
vt 0.9029 0.2376
vt 0.7320 0.3291
vt 0.6875 0.2043
vt 0.9029 0.1243
vt 0.7208 0.0961
vt 0.8945 0.0461
vt 0.7499 0.0241
vt 0.8279 0.0048
vt 0.6256 0.0159
vt 0.5098 0.2974
vt 0.5475 0.0310
vt 0.6777 0.0048
vt 0.6620 0.2158
vt 0.3561 0.5528
vt 0.2791 0.5568
vt 0.3315 0.2928
vt 0.0049 0.0129
vt 0.0841 0.0066
vt 0.0358 0.2207
vt 0.6777 0.3246
vt 0.5151 0.3496
vt 0.1672 0.2884
vt 0.0291 0.3312
vt 0.6765 0.5590
vt 0.5555 0.5841
vt 0.1680 0.3409
vt 0.0649 0.5630
vt 0.1761 0.5757
vt 0.4331 0.5489
vt 0.4579 0.2619
vt 0.5000 0.5568
vt 0.6877 0.6034
vt 0.7883 0.6011
vt 0.6875 0.9008
vt 0.3293 0.2404
vt 0.7825 0.5651
vt 0.4497 0.2264
vt 0.6920 0.5672
vt 0.2693 0.3102
vt 0.2612 0.3463
vt 0.7887 0.9008
vt 0.2693 0.0106
vt 0.4409 0.0128
vt 0.3366 0.0048
vt 0.6901 0.3534
vt 0.7738 0.3515
vt 0.2665 0.5600
vt 0.1595 0.0048
vt 0.0947 0.9150
vt 0.0717 0.8182
vt 0.1572 0.8741
vt 0.0049 0.8671
vt 0.1572 0.9952
vt 0.0370 0.9622
vt 0.5098 0.9813
vt 0.6188 0.8493
vt 0.6422 0.9813
vt 0.5182 0.8362
vt 0.4109 0.9895
vt 0.2791 0.9895
vt 0.2928 0.9283
vt 0.8424 0.5394
vt 0.9662 0.5147
vt 0.9919 0.5407
vt 0.3975 0.8559
vt 0.8591 0.5137
vt 0.7986 0.4097
vt 0.8277 0.4208
vt 0.6283 0.8480
vt 0.3073 0.8619
vt 0.0209 0.7510
vt 0.0057 0.8087
vt 0.0049 0.7444
vt 0.0548 0.6934
vt 0.8710 0.3790
vt 0.9502 0.1393
vt 0.9128 0.0569
vt 0.9502 0.0048
vt 0.7986 0.8634
vt 0.8298 0.8605
vt 0.8408 0.9461
vt 0.0473 0.6777
vt 0.8285 0.6732
vt 0.8380 0.6117
vt 0.8728 0.7216
vt 0.0083 0.6844
vt 0.8334 0.7316
vt 0.8590 0.3515
vt 0.1670 0.8182
vt 0.2574 0.8189
vt 0.1670 0.9011
vt 0.8826 0.9383
vt 0.8826 0.8646
vt 0.8586 0.5523
vt 0.9004 0.5503
vt 0.9010 0.6182
vt 0.2574 0.9094
vt 0.1477 0.6934
vt 0.1489 0.6777
vt 0.9919 0.3954
vt 0.9662 0.4105
vt 0.9018 0.7215
vt 0.1771 0.7510
vt 0.6422 0.8226
vt 0.5517 0.8266
vt 0.5300 0.7747
vt 0.6409 0.7133
vt 0.1944 0.7444
vt 0.1887 0.6843
vt 0.9928 0.7927
vt 0.9553 0.7936
vt 0.9951 0.7344
vt 0.5098 0.7178
vt 0.1782 0.8087
vt 0.9186 0.6819
vt 0.9809 0.6690
vt 0.9263 0.7951
vt 0.5414 0.6044
vt 0.6422 0.5936
vt 0.9556 0.6072
vt 0.9134 0.6036
vt 0.5318 0.6018
vt 0.9479 0.2806
vt 0.9128 0.2275
vt 0.9479 0.1489
vt 0.9634 0.5503
vt 0.9951 0.5517
vt 0.9116 0.5610
vt 0.0917 0.5852
vt 0.0235 0.6081
vt 0.2042 0.6507
vt 0.2085 0.5852
vt 0.2469 0.6099
vt 0.1714 0.6081
vt 0.2462 0.6914
vt 0.2073 0.7291
vt 0.8621 0.8088
vt 0.9018 0.7884
vt 0.9012 0.8509
vt 0.7986 0.7489
vt 0.2469 0.7450
vt 0.9309 0.8562
vt 0.9713 0.8658
vt 0.9021 0.4552
vt 0.4772 0.7912
vt 0.4351 0.8464
vt 0.3345 0.8251
vt 0.2791 0.7074
vt 0.2864 0.6344
vt 0.3596 0.5689
vt 0.4349 0.5663
vt 0.4772 0.6354
vt 0.4772 0.7133
vn 0.0000 -1.0000 0.0000
vn -0.4099 -0.1702 -0.8961
vn -0.7567 -0.0601 -0.6510
vn -0.9482 -0.0334 -0.3160
vn 0.4160 -0.1576 -0.8956
vn 0.0474 -0.1429 -0.9886
vn -0.9985 0.0543 0.0000
vn 0.8681 -0.0645 -0.4921
vn -0.0016 -0.0282 -0.9996
vn -0.7387 -0.0611 -0.6713
vn 0.7383 -0.0404 -0.6733
vn -0.0000 -0.1861 -0.9825
vn -0.7781 -0.1398 -0.6124
vn 0.7375 -0.0722 -0.6715
vn 0.7780 -0.1398 -0.6125
vn -0.9307 -0.0321 0.3644
vn -0.5005 -0.1693 0.8491
vn -0.3280 -0.0664 0.9424
vn -0.9015 -0.0531 0.4294
vn 0.5113 -0.1388 0.8481
vn -0.8761 -0.0517 0.4794
vn 0.4848 -0.1307 0.8648
vn -0.4848 -0.1307 0.8648
vn 0.8742 -0.0639 0.4813
vn 0.6242 0.0083 0.7813
vn 0.8790 -0.0120 0.4766
vn -0.5650 -0.0566 0.8232
vn -0.9334 -0.1281 0.3352
vn 0.5650 -0.0566 0.8232
vn 0.9086 0.0482 0.4148
vn 0.9334 -0.1281 0.3352
vn 0.0000 -0.9985 0.0541
vn 0.2927 -0.9001 -0.3228
vn 0.6120 -0.7847 0.0985
vn -0.2927 -0.9001 -0.3228
vn 0.0000 -0.9209 0.3899
vn -0.6119 -0.7847 0.0985
vn 0.9937 0.0567 -0.0967
vn -0.8578 0.4872 -0.1640
vn -0.7543 0.0214 -0.6562
vn -0.9724 0.1098 -0.2060
vn -0.6624 0.3578 -0.6581
vn -0.8665 0.4666 0.1773
vn -0.1933 0.9622 -0.1921
vn -0.4398 0.5434 0.7150
vn -0.2367 0.9713 -0.0230
vn -0.1462 0.9702 0.1930
vn -0.6726 0.2531 -0.6954
vn -0.4936 0.7404 0.4563
vn -0.8009 0.5975 -0.0385
vn 0.1461 0.9703 0.1930
vn -0.8016 0.2909 -0.5223
vn -0.4609 0.0137 -0.8873
vn -0.3637 0.9312 0.0257
vn -0.9803 0.1883 -0.0590
vn -0.7949 0.5997 0.0918
vn 0.4192 0.5618 0.7133
vn -0.7611 -0.0813 -0.6435
vn -0.3941 -0.1349 -0.9091
vn -0.9892 0.0093 -0.1462
vn 0.5670 0.6858 0.4562
vn 0.3305 0.9392 0.0935
vn 0.8507 0.4946 -0.1779
vn 0.2366 0.9713 -0.0230
vn -0.9913 0.0086 -0.1317
vn 0.8518 0.5162 0.0893
vn 0.8375 0.5343 -0.1146
vn 0.7826 0.6084 0.1317
vn 0.1933 0.9622 -0.1921
vn 0.9890 0.1249 -0.0793
vn 0.9559 0.1238 -0.2663
vn 0.6624 0.3578 -0.6581
vn 0.9823 0.0329 -0.1844
vn 0.9851 -0.0696 -0.1570
vn 0.7584 0.0178 -0.6516
vn 0.8040 0.2916 -0.5182
vn 0.7345 -0.1075 -0.6700
vn 0.6752 0.2565 -0.6916
vn 0.4593 0.0124 -0.8882
vn 0.3956 -0.1348 -0.9085
vn -0.0127 0.6229 0.7822
vn -0.0895 0.8176 0.5689
vn -0.6081 0.5057 0.6119
vn 0.0846 0.8177 0.5694
vn -0.3437 0.3981 0.8505
vn 0.6245 0.4573 0.6331
vn 0.3011 0.3666 0.8803
vn -0.8599 0.2384 0.4513
vn -0.9221 0.2353 0.3071
vn -0.7709 0.5216 0.3657
vn -0.6776 0.6273 0.3838
vn 0.8748 0.1144 0.4708
vn -0.9715 0.0084 0.2369
vn 0.9403 0.1793 0.2894
vn 0.9705 -0.0686 0.2310
vn 0.7662 0.5457 0.3395
vn 0.6386 0.6798 0.3606
vn -0.0000 0.9999 0.0150
vn -0.0000 0.9453 0.3261
vn 0.3628 0.9301 0.0575
vn -0.3629 0.9301 0.0575
vn 0.1674 0.9403 -0.2964
vn -0.1674 0.9403 -0.2964
vn -0.1136 0.9935 0.0072
s off
f 64/1/1 26/2/1 63/3/1
f 64/1/1 56/4/1 26/2/1
f 64/1/1 63/3/1 27/5/1
f 64/1/1 49/6/1 56/4/1
f 49/6/1 55/7/1 56/4/1
f 49/6/1 28/8/1 55/7/1
f 28/8/1 59/9/1 55/7/1
f 28/8/1 29/10/1 59/9/1
f 29/10/1 45/11/1 59/9/1
s 1
f 1/12/2 2/13/3 3/14/4
f 1/12/2 4/15/5 5/16/6
f 1/12/2 5/16/6 2/13/3
f 15/17/7 3/18/4 2/19/3
f 4/20/5 6/21/8 5/22/6
f 2/13/3 5/16/6 7/23/9
f 2/13/3 7/23/9 8/24/10
f 5/22/6 6/21/8 20/25/11
f 5/22/6 20/25/11 7/26/9
f 8/24/10 7/23/9 24/27/12
f 8/24/10 24/27/12 9/28/13
f 7/26/9 10/29/14 24/30/12
f 20/25/11 10/29/14 7/26/9
f 10/29/14 11/31/15 24/30/12
f 12/32/16 13/33/17 14/34/18
f 12/32/16 2/19/19 13/33/17
f 12/32/16 15/17/7 2/19/19
f 13/35/17 16/36/20 14/37/18
f 13/33/17 2/19/19 8/38/21
f 13/35/17 17/39/22 16/36/20
f 13/33/17 8/38/21 18/40/23
f 13/35/17 18/41/23 17/39/22
f 16/42/20 17/43/22 10/29/24
f 16/36/20 19/44/25 14/37/18
f 16/42/20 10/29/24 20/25/26
f 16/42/20 20/25/26 19/45/25
f 8/38/21 21/46/27 18/40/23
f 8/38/21 9/47/28 21/46/27
f 18/41/23 21/48/27 23/49/29
f 17/39/22 18/41/23 23/49/29
f 17/43/22 23/50/29 10/29/24
f 20/25/26 25/51/30 19/45/25
f 10/29/24 23/50/29 11/31/31
f 22/52/32 21/53/33 9/54/34
f 22/52/32 23/55/35 21/53/33
f 22/52/32 9/54/34 24/56/36
f 22/52/32 24/56/36 11/57/37
f 22/52/32 11/57/37 23/55/35
f 6/21/8 25/51/38 20/25/11
f 30/58/39 57/59/40 31/60/41
f 30/58/39 32/61/42 57/59/40
f 30/62/39 31/63/41 33/64/43
f 30/65/39 34/66/44 32/67/42
f 30/62/39 33/64/43 35/68/45
f 30/65/39 36/69/46 34/66/44
f 30/65/39 35/70/45 37/71/47
f 30/65/39 37/71/47 36/69/46
f 57/59/40 38/72/48 31/60/41
f 33/64/43 39/73/49 35/68/45
f 33/74/43 31/75/41 40/76/50
f 33/74/43 40/76/50 39/77/49
f 37/71/47 35/70/45 41/78/51
f 38/79/48 42/80/52 31/81/41
f 38/82/48 43/83/53 42/84/52
f 40/76/50 67/85/54 39/77/49
f 40/86/50 31/87/41 65/88/55
f 40/76/50 66/89/56 67/85/54
f 40/86/50 65/88/55 66/90/56
f 35/70/45 44/91/57 41/78/51
f 35/92/45 39/93/49 44/94/57
f 43/83/53 29/95/58 42/84/52
f 43/83/53 45/96/59 29/95/58
f 42/97/52 29/98/58 28/99/60
f 31/87/41 28/99/60 65/88/55
f 31/87/41 42/97/52 28/99/60
f 39/93/49 46/100/61 44/94/57
f 67/85/54 46/101/61 39/77/49
f 67/85/54 68/102/62 46/101/61
f 41/78/51 44/91/57 47/103/63
f 41/78/51 47/103/63 48/104/64
f 65/88/55 28/99/60 49/105/65
f 68/102/62 50/106/66 46/101/61
f 44/107/57 46/108/61 50/109/66
f 44/107/57 50/109/66 47/110/63
f 68/102/62 51/111/67 50/106/66
f 68/102/62 52/112/68 51/111/67
f 48/104/64 47/103/63 34/66/69
f 52/113/68 53/114/70 51/115/67
f 50/109/66 54/116/71 47/110/63
f 50/106/66 51/111/67 54/117/71
f 34/66/69 47/103/63 32/67/72
f 53/114/70 55/118/73 51/115/67
f 51/115/67 55/118/73 54/119/71
f 53/114/70 56/120/74 55/118/73
f 47/110/63 57/121/75 32/122/72
f 47/110/63 54/116/71 57/121/75
f 55/118/73 58/123/76 54/119/71
f 55/118/73 59/124/77 58/123/76
f 57/121/75 54/116/71 38/125/78
f 54/126/71 58/127/76 38/128/78
f 59/124/77 43/129/79 58/123/76
f 43/129/79 38/130/78 58/123/76
f 59/124/77 45/131/80 43/129/79
f 60/132/81 67/85/82 61/133/83
f 60/132/81 68/102/84 67/85/82
f 60/134/81 61/135/83 27/136/85
f 60/132/81 62/137/86 68/102/84
f 60/134/81 27/136/85 63/138/87
f 60/134/81 63/138/87 62/139/86
f 61/140/83 64/141/88 27/142/85
f 61/140/83 65/88/89 64/141/88
f 61/140/83 66/90/90 65/88/89
f 61/140/83 67/143/91 66/90/90
f 63/138/87 26/144/92 62/139/86
f 64/141/88 65/88/89 49/105/93
f 26/145/92 53/114/94 62/146/86
f 26/145/92 56/120/95 53/114/94
f 62/146/86 53/114/94 52/113/96
f 62/137/86 52/112/96 68/102/97
f 69/147/98 34/66/99 36/69/100
f 69/147/98 48/104/101 34/66/99
f 69/147/98 36/69/100 37/71/102
f 69/147/98 41/78/103 48/104/101
f 69/147/98 37/71/102 41/78/103
f 12/148/104 14/149/104 19/150/104 25/151/104 6/152/104 4/153/104 1/154/104 3/155/104 15/156/104
