# Blender v2.78 (sub 0) OBJ File: 'sheepLegTri.blend'
# www.blender.org
v 0.000000 -0.159128 0.483868
v 0.000000 0.081601 0.390467
v -0.342146 -0.159128 0.342146
v -0.342146 0.081601 0.248745
v -0.483868 -0.159128 -0.000000
v -0.483868 0.097837 -0.000000
v -0.214594 -0.099805 -0.472247
v -0.214594 0.099805 -0.472247
v 0.000000 -0.159128 -0.293083
v 0.000000 0.159128 -0.293083
v 0.214594 -0.099805 -0.472247
v 0.214594 0.099805 -0.472247
v 0.483868 -0.159128 0.000000
v 0.483868 0.097837 0.000000
v 0.342146 -0.159128 0.342146
v 0.342146 0.081601 0.248745
v -0.225998 0.159128 0.225998
v 0.000000 0.159128 0.319610
v -0.319610 0.097837 -0.000000
v -0.225998 0.097837 -0.225998
v 0.000000 0.097837 -0.319610
v 0.225998 0.097837 -0.225998
v 0.319610 0.097837 0.000000
v 0.225998 0.159128 0.225998
v -0.225998 0.671521 0.298303
v 0.000000 0.671521 0.391915
v -0.319610 0.671521 0.072305
v -0.225998 0.671521 -0.153693
v 0.000000 0.671521 -0.247304
v 0.225998 0.671521 -0.153693
v 0.319610 0.671521 0.072305
v 0.225998 0.671521 0.298303
v -0.225998 0.990948 0.298303
v -0.000000 0.990948 0.391915
v -0.319610 0.990948 0.072305
v -0.225998 0.990948 -0.153693
v 0.000000 0.990948 -0.247304
v 0.225998 0.990948 -0.153693
v 0.319610 0.990948 0.072305
v 0.225998 0.990948 0.298303
v -0.225998 1.228863 0.225998
v 0.000000 1.228863 0.319610
v -0.319610 1.228863 -0.000000
v -0.225998 1.228863 -0.225998
v 0.000000 1.228863 -0.319610
v 0.225998 1.228863 -0.225998
v 0.319610 1.228863 0.000000
v 0.225998 1.228863 0.225998
v -0.225998 0.990948 0.298303
v -0.000000 0.990948 0.391915
v -0.319610 0.990948 0.072305
v -0.225998 0.990948 -0.153693
v 0.000000 0.990948 -0.247304
v 0.225998 0.990948 -0.153693
v 0.319610 0.990948 0.072305
v 0.225998 0.990948 0.298303
v -0.225998 1.228863 0.225998
v 0.000000 1.228863 0.319610
v -0.319610 1.228863 -0.000000
v -0.225998 1.228863 -0.225998
v 0.000000 1.228863 -0.319610
v 0.225998 1.228863 -0.225998
v 0.319610 1.228863 0.000000
v 0.225998 1.228863 0.225998
v -0.291067 0.990436 0.373781
v -0.000000 0.956699 0.494345
v -0.411630 0.923023 0.082714
v -0.291067 0.998842 -0.208352
v 0.000000 0.931225 -0.328916
v 0.291067 0.990639 -0.208352
v 0.411630 0.956700 0.082714
v 0.291067 0.998146 0.373781
v -0.291067 1.263113 0.280658
v 0.000000 1.263113 0.401221
v -0.411630 1.263113 -0.010409
v -0.291067 1.263113 -0.301475
v 0.000000 1.263113 -0.422039
v 0.291067 1.263113 -0.301475
v 0.411630 1.263113 -0.010409
v 0.291067 1.263113 0.280658
vt 0.1263 0.1516
vt 0.0795 0.0359
vt 0.1358 0.0380
vt 0.0700 0.1495
vt 0.0397 0.0380
vt 0.8018 0.6484
vt 0.7191 0.5555
vt 0.8018 0.5277
vt 0.8091 0.0636
vt 0.8506 0.1854
vt 0.8091 0.1574
vt 0.3676 0.9110
vt 0.3278 0.7893
vt 0.3676 0.7615
vt 0.7191 0.8149
vt 0.7884 0.7227
vt 0.7884 0.8434
vt 0.9101 0.7437
vt 0.8930 0.7938
vt 0.8884 0.7563
vt 0.1321 0.6486
vt 0.0888 0.7618
vt 0.0757 0.6486
vt 0.0484 0.7623
vt 0.0353 0.6491
vt 0.5543 0.6806
vt 0.5652 0.5718
vt 0.6095 0.6781
vt 0.5455 0.0364
vt 0.5808 0.3053
vt 0.5437 0.3058
vt 0.8817 0.8995
vt 0.8715 0.9400
vt 0.8591 0.9162
vt 0.8726 0.7211
vt 0.8591 0.7334
vt 0.8947 0.5277
vt 0.8975 0.5662
vt 0.8725 0.5658
vt 0.9101 0.8277
vt 0.8702 0.8237
vt 0.1472 0.1919
vt 0.1209 0.1886
vt 0.0837 0.1872
vt 0.9112 0.6014
vt 0.9123 0.6395
vt 0.4411 0.3055
vt 0.4075 0.4565
vt 0.4038 0.3065
vt 0.2402 0.4556
vt 0.2737 0.1868
vt 0.2772 0.4565
vt 0.0792 0.4261
vt 0.3815 0.0666
vt 0.3772 0.3074
vt 0.5171 0.0364
vt 0.5153 0.3058
vt 0.3031 0.1876
vt 0.3065 0.4573
vt 0.0529 0.4274
vt 0.0584 0.1599
vt 0.4082 0.0656
vt 0.0000 0.0000
vt 0.0000 0.0000
vt 0.0000 0.0000
vt 0.5455 0.4559
vt 0.2368 0.1859
vt 0.2772 0.0367
vt 0.1109 0.5768
vt 0.0737 0.5755
vt 0.3808 0.4575
vt 0.5171 0.4559
vt 0.3065 0.0375
vt 0.0474 0.5768
vt 0.5789 0.8437
vt 0.5153 0.8169
vt 0.5417 0.7524
vt 0.0000 0.0000
vt 0.0000 0.0000
vt 0.0000 0.0000
vt 0.0000 0.0000
vt 0.0000 0.0000
vt 0.0000 0.0000
vt 0.0000 0.0000
vt 0.0000 0.0000
vt 0.0000 0.0000
vt 0.0000 0.0000
vt 0.0000 0.0000
vt 0.0000 0.0000
vt 0.0000 0.0000
vt 0.0000 0.0000
vt 0.0000 0.0000
vt 0.6020 0.9205
vt 0.6177 0.9640
vt 0.6020 0.9582
vt 0.9213 0.0767
vt 0.9372 0.0359
vt 0.9371 0.0743
vt 0.8361 0.3054
vt 0.8681 0.2746
vt 0.8692 0.2899
vt 0.8087 0.3403
vt 0.8212 0.2927
vt 0.9214 0.1142
vt 0.9372 0.1226
vt 0.8224 0.3405
vt 0.8212 0.3820
vt 0.9535 0.4022
vt 0.9399 0.4438
vt 0.9399 0.3951
vt 0.8361 0.3747
vt 0.8681 0.4009
vt 0.0000 0.0000
vt 0.0000 0.0000
vt 0.0000 0.0000
vt 0.0000 0.0000
vt 0.0000 0.0000
vt 0.0000 0.0000
vt 0.0000 0.0000
vt 0.0000 0.0000
vt 0.0000 0.0000
vt 0.0000 0.0000
vt 0.0000 0.0000
vt 0.0000 0.0000
vt 0.0000 0.0000
vt 0.0000 0.0000
vt 0.6892 0.3005
vt 0.6538 0.4269
vt 0.6533 0.2826
vt 0.6937 0.0752
vt 0.6533 0.2029
vt 0.6536 0.0464
vt 0.4099 0.6624
vt 0.4447 0.5292
vt 0.4447 0.6897
vt 0.2028 0.6635
vt 0.2522 0.7932
vt 0.2045 0.7888
vt 0.7380 0.4309
vt 0.6903 0.4289
vt 0.7384 0.1962
vt 0.6910 0.2000
vt 0.3631 0.5351
vt 0.4110 0.5335
vt 0.3278 0.6586
vt 0.3626 0.6798
vt 0.0672 0.9092
vt 0.0353 0.8916
vt 0.0662 0.8829
vt 0.9524 0.9066
vt 0.9647 0.9482
vt 0.9524 0.9444
vt 0.0642 0.8451
vt 0.0678 0.8411
vt 0.5153 0.9222
vt 0.5314 0.9641
vt 0.5153 0.9600
vt 0.2267 0.9357
vt 0.2028 0.9134
vt 0.2293 0.9089
vt 0.9544 0.3172
vt 0.9399 0.2746
vt 0.9544 0.2794
vt 0.2297 0.8711
vt 0.2306 0.8650
vt 0.7362 0.9212
vt 0.7191 0.9638
vt 0.7191 0.9152
vt 0.0353 0.1582
vt 0.7191 0.6493
vt 0.8506 0.0359
vt 0.3278 0.8830
vt 0.7191 0.7211
vt 0.1321 0.7694
vt 0.6485 0.6368
vt 0.5153 0.6429
vt 0.5788 0.5277
vt 0.6485 0.5809
vt 0.5198 0.5552
vt 0.5826 0.0359
vt 0.8817 0.9485
vt 0.9123 0.5319
vt 0.8683 0.8204
vt 0.1661 0.1566
vt 0.4447 0.4556
vt 0.1164 0.4274
vt 0.4447 0.0359
vt 0.5826 0.4554
vt 0.2402 0.0359
vt 0.5789 0.7524
vt 0.6052 0.7791
vt 0.6052 0.8169
vt 0.5417 0.8437
vt 0.5153 0.7791
vt 0.6177 0.9154
vt 0.9214 0.0469
vt 0.9535 0.4400
vt 0.8692 0.3879
vt 0.2522 0.6486
vt 0.7380 0.2746
vt 0.7384 0.0359
vt 0.3290 0.5333
vt 0.0678 0.9239
vt 0.9647 0.8995
vt 0.5314 0.9154
vt 0.2306 0.9482
vt 0.9399 0.3233
vt 0.7362 0.9590
vn -0.3602 0.3374 0.8697
vn -0.9139 0.1469 0.3785
vn -0.8687 0.0000 -0.4953
vn 0.6409 0.0000 -0.7676
vn -0.6409 0.0000 -0.7676
vn 0.8687 0.0000 -0.4953
vn 0.0000 1.0000 -0.0000
vn 0.9139 0.1469 0.3785
vn 0.3602 0.3374 0.8697
vn 0.0000 -1.0000 0.0000
vn 0.3801 0.1157 -0.9177
vn 0.3553 -0.3713 0.8578
vn 0.5546 0.8321 0.0041
vn 0.0000 0.9979 0.0651
vn -0.0034 1.0000 0.0081
vn 0.2924 0.6452 0.7059
vn -0.2924 0.6452 0.7059
vn 0.0073 0.9999 0.0083
vn 0.9239 0.0000 0.3827
vn -0.9228 0.0482 -0.3822
vn -0.3795 -0.1293 0.9161
vn 0.3795 -0.1293 0.9161
vn 0.9228 0.0482 -0.3822
vn -0.3801 0.1157 -0.9177
vn -0.9179 -0.0496 0.3937
vn 0.9225 -0.0539 0.3821
vn 0.0000 0.0000 1.0000
vn 0.3827 0.0000 -0.9239
vn -0.9239 0.0000 -0.3827
vn -0.3827 -0.0000 0.9239
vn 0.3827 0.0000 0.9239
vn 0.9239 0.0000 -0.3827
vn -0.3827 -0.0000 -0.9239
vn -0.9239 0.0000 0.3827
vn 0.1583 0.9105 -0.3821
vn -0.1583 0.9105 -0.3821
vn 0.0021 -1.0000 -0.0050
vn 0.0037 -0.9484 -0.3171
vn -0.3597 0.9211 -0.1490
vn -0.0365 -0.9914 0.1260
vn -0.3318 0.9333 0.1374
vn -0.3522 -0.9352 0.0369
vn 0.9123 -0.1191 -0.3918
vn -0.4191 -0.2453 -0.8742
vn -0.9272 0.0989 0.3612
vn 0.9156 0.1333 0.3793
vn 0.3649 -0.3011 -0.8810
vn -0.9156 -0.1336 -0.3793
vn -0.3649 0.3009 0.8811
vn 0.3345 0.2740 0.9017
vn 0.5605 -0.7949 -0.2322
vn 0.3597 0.9211 -0.1490
vn 0.0703 -0.9720 -0.2241
vn 0.3318 0.9333 0.1374
vn 0.2376 -0.7839 0.5736
vn 0.1302 0.9403 0.3144
vn 0.1321 -0.9778 0.1628
vn -0.1302 0.9403 0.3144
vn -0.8689 0.0000 0.4950
vn -0.0073 0.9999 0.0083
vn 0.8689 0.0000 0.4950
vn 0.1134 -0.9757 -0.1872
vn -0.1134 -0.9757 -0.1872
vn -0.2630 0.9648 -0.0045
vn -0.5546 0.8321 0.0041
vn 0.5488 -0.3320 0.7672
vn -0.9225 -0.0539 0.3821
vn 0.9179 -0.0496 0.3937
vn 0.0214 -0.9482 -0.3170
vn 0.0290 -0.9971 0.0701
vn -0.3318 -0.9333 -0.1374
vn -0.0035 -1.0000 0.0015
vn 0.9161 -0.1297 -0.3795
vn -0.3639 -0.3096 -0.8785
vn -0.9161 0.1296 0.3795
vn 0.9236 0.1114 0.3667
vn 0.4134 -0.2460 -0.8767
vn -0.9076 -0.1109 -0.4048
vn -0.3409 0.2734 0.8995
vn 0.3640 0.3088 0.8787
vn 0.1815 -0.9719 0.1499
vn 0.5935 -0.7664 0.2458
vn -0.1913 -0.9777 0.0865
vn -0.2376 -0.7839 0.5736
s off
f 2/1/1 3/2/1 1/3/1
f 4/4/2 5/5/2 3/2/2
f 6/6/3 7/7/3 5/8/3
f 8/9/4 9/10/4 7/11/4
f 10/12/5 11/13/5 9/14/5
f 11/15/6 14/16/6 13/17/6
f 14/18/7 22/19/7 23/20/7
f 13/21/8 16/22/8 15/23/8
f 15/23/9 2/24/9 1/25/9
f 3/26/10 9/27/10 1/28/10
f 22/29/11 29/30/11 30/31/11
f 10/32/12 20/33/12 21/34/12
f 16/35/13 23/20/13 24/36/13
f 4/37/14 19/38/14 6/39/14
f 12/40/15 21/41/15 22/19/15
f 2/1/16 24/42/16 18/43/16
f 2/1/17 17/44/17 4/4/17
f 6/39/18 20/45/18 8/46/18
f 31/47/19 40/48/19 32/49/19
f 19/50/20 28/51/20 20/52/20
f 18/43/21 25/53/21 17/44/21
f 18/54/22 32/49/22 26/55/22
f 23/56/23 30/31/23 31/57/23
f 20/52/24 29/58/24 21/59/24
f 17/44/25 27/60/25 19/61/25
f 24/62/26 31/47/26 32/49/26
f 43/63/27 60/64/27 59/65/27
f 29/30/28 38/66/28 30/31/28
f 27/67/29 36/68/29 28/51/29
f 25/53/30 34/69/30 33/70/30
f 26/55/31 40/48/31 34/71/31
f 30/31/32 39/72/32 31/57/32
f 28/51/33 37/73/33 29/58/33
f 25/53/34 35/74/34 27/60/34
f 47/75/7 45/76/7 43/77/7
f 37/78/27 52/79/27 53/80/27
f 41/81/27 59/65/27 57/82/27
f 36/83/27 51/84/27 52/79/27
f 42/85/27 57/82/27 58/86/27
f 35/87/27 49/88/27 51/84/27
f 48/89/27 58/86/27 64/90/27
f 33/91/27 50/92/27 49/88/27
f 57/93/35 74/94/35 58/95/35
f 64/96/36 74/97/36 80/98/36
f 50/99/37 65/100/37 49/101/37
f 50/99/38 72/102/38 66/103/38
f 63/104/39 80/98/39 79/105/39
f 56/106/40 71/107/40 72/102/40
f 62/108/41 79/109/41 78/110/41
f 55/111/42 70/112/42 71/107/42
f 38/113/27 53/80/27 54/114/27
f 44/115/27 61/116/27 60/64/27
f 39/117/27 54/114/27 55/118/27
f 45/119/27 62/120/27 61/116/27
f 40/121/27 55/118/27 56/122/27
f 46/123/27 63/124/27 62/120/27
f 34/125/27 56/122/27 50/92/27
f 47/126/27 64/90/27 63/124/27
f 70/127/43 79/128/43 71/129/43
f 68/130/44 77/131/44 69/132/44
f 65/133/45 75/134/45 67/135/45
f 72/136/46 79/137/46 80/138/46
f 70/127/47 77/139/47 78/140/47
f 68/130/48 75/141/48 76/142/48
f 65/133/49 74/143/49 73/144/49
f 72/145/50 74/143/50 66/146/50
f 49/147/51 67/148/51 51/149/51
f 59/150/52 73/151/52 57/152/52
f 52/153/53 67/148/53 68/154/53
f 60/155/54 75/156/54 59/157/54
f 52/158/55 69/159/55 53/160/55
f 61/161/56 76/162/56 60/163/56
f 54/164/57 69/159/57 70/165/57
f 61/166/58 78/167/58 77/168/58
f 2/1/1 4/4/1 3/2/1
f 4/4/59 6/169/59 5/5/59
f 6/6/3 8/170/3 7/7/3
f 8/9/4 10/171/4 9/10/4
f 10/12/5 12/172/5 11/13/5
f 11/15/6 12/173/6 14/16/6
f 14/18/60 12/40/60 22/19/60
f 13/21/61 14/174/61 16/22/61
f 15/23/9 16/22/9 2/24/9
f 15/175/10 1/28/10 9/27/10
f 3/26/10 5/176/10 9/27/10
f 9/27/62 11/177/62 13/178/62
f 5/176/63 7/179/63 9/27/63
f 13/178/10 15/175/10 9/27/10
f 22/29/11 21/180/11 29/30/11
f 10/32/64 8/181/64 20/33/64
f 16/35/14 14/18/14 23/20/14
f 4/37/65 17/182/65 19/38/65
f 12/40/66 10/183/66 21/41/66
f 2/1/16 16/184/16 24/42/16
f 2/1/17 18/43/17 17/44/17
f 6/39/7 19/38/7 20/45/7
f 31/47/19 39/185/19 40/48/19
f 19/50/20 27/67/20 28/51/20
f 18/43/21 26/186/21 25/53/21
f 18/54/22 24/62/22 32/49/22
f 23/56/23 22/29/23 30/31/23
f 20/52/24 28/51/24 29/58/24
f 17/44/67 25/53/67 27/60/67
f 24/62/68 23/187/68 31/47/68
f 43/63/27 44/115/27 60/64/27
f 29/30/28 37/188/28 38/66/28
f 27/67/29 35/189/29 36/68/29
f 25/53/30 26/186/30 34/69/30
f 26/55/31 32/49/31 40/48/31
f 30/31/32 38/66/32 39/72/32
f 28/51/33 36/68/33 37/73/33
f 25/53/34 33/70/34 35/74/34
f 43/77/7 41/190/7 42/191/7
f 42/191/7 48/192/7 47/75/7
f 47/75/7 46/193/7 45/76/7
f 45/76/7 44/194/7 43/77/7
f 43/77/7 42/191/7 47/75/7
f 37/78/27 36/83/27 52/79/27
f 41/81/27 43/63/27 59/65/27
f 36/83/27 35/87/27 51/84/27
f 42/85/27 41/81/27 57/82/27
f 35/87/27 33/91/27 49/88/27
f 48/89/27 42/85/27 58/86/27
f 33/91/27 34/125/27 50/92/27
f 57/93/35 73/195/35 74/94/35
f 64/96/36 58/196/36 74/97/36
f 50/99/69 66/103/69 65/100/69
f 50/99/70 56/106/70 72/102/70
f 63/104/39 64/96/39 80/98/39
f 56/106/71 55/111/71 71/107/71
f 62/108/41 63/197/41 79/109/41
f 55/111/72 54/198/72 70/112/72
f 38/113/27 37/78/27 53/80/27
f 44/115/27 45/119/27 61/116/27
f 39/117/27 38/113/27 54/114/27
f 45/119/27 46/123/27 62/120/27
f 40/121/27 39/117/27 55/118/27
f 46/123/27 47/126/27 63/124/27
f 34/125/27 40/121/27 56/122/27
f 47/126/27 48/89/27 64/90/27
f 70/127/73 78/140/73 79/128/73
f 68/130/74 76/142/74 77/131/74
f 65/133/75 73/144/75 75/134/75
f 72/136/76 71/199/76 79/137/76
f 70/127/77 69/200/77 77/139/77
f 68/130/78 67/201/78 75/141/78
f 65/133/79 66/146/79 74/143/79
f 72/145/80 80/202/80 74/143/80
f 49/147/81 65/203/81 67/148/81
f 59/150/52 75/204/52 73/151/52
f 52/153/82 51/149/82 67/148/82
f 60/155/54 76/205/54 75/156/54
f 52/158/83 68/206/83 69/159/83
f 61/161/56 77/207/56 76/162/56
f 54/164/84 53/160/84 69/159/84
f 61/166/58 62/208/58 78/167/58
