# Blender v2.78 (sub 0) OBJ File: 'sheepHead.blend'
# www.blender.org
v -0.089964 0.689785 -0.148124
v -0.089964 2.362618 -0.092619
v -0.001502 0.689785 -0.131563
v -0.041224 2.362618 -0.083494
v 0.063256 0.689785 -0.086318
v -0.005544 2.362618 -0.058566
v 0.086959 0.689785 -0.024513
v 0.007515 2.362618 -0.024513
v 0.063256 0.689785 0.037292
v -0.005544 2.362618 0.009540
v -0.001502 0.689785 0.082537
v -0.041224 2.362618 0.034468
v -0.089964 0.689785 0.099098
v -0.089964 2.362618 0.043593
v -0.178425 0.689785 0.082537
v -0.138703 2.362618 0.034468
v -0.243184 0.689785 0.037292
v -0.174383 2.362618 0.009540
v -0.266887 0.689785 -0.024513
v -0.187443 2.362618 -0.024513
v -0.243184 0.689785 -0.086318
v -0.174383 2.362618 -0.058566
v -0.178425 0.689785 -0.131563
v -0.138703 2.362618 -0.083494
v -0.089964 1.196925 -0.624690
v 0.339551 1.196925 -0.544282
v 0.653978 1.196925 -0.324602
v 0.769066 1.196925 -0.024513
v 0.653978 1.196925 0.275576
v 0.339551 1.196925 0.441037
v -0.089964 1.196925 0.521445
v -0.519479 1.196925 0.441037
v -0.833905 1.196925 0.275576
v -0.948994 1.196925 -0.024513
v -0.833906 1.196925 -0.324601
v -0.519479 1.196925 -0.544282
v -0.089964 2.285890 -0.376801
v 0.162150 2.285890 -0.329604
v 0.346710 2.285890 -0.200657
v 0.414264 2.285890 -0.024513
v 0.346710 2.285890 0.151631
v 0.162150 2.285890 0.280578
v -0.089964 2.285890 0.327775
v -0.342078 2.285890 0.280578
v -0.526638 2.285890 0.151631
v -0.594192 2.285890 -0.024513
v -0.526638 2.285890 -0.200657
v -0.342078 2.285890 -0.329603
v 0.280715 1.950745 -0.473082
v 0.552070 1.950745 -0.283494
v 0.651393 1.950745 -0.024513
v 0.552070 1.950745 0.234468
v 0.280715 1.950745 0.424056
v -0.089964 1.950745 0.493450
v -0.460642 1.950745 0.424056
v -0.731997 1.950745 0.234468
v -0.831320 1.950745 -0.024513
v -0.731998 1.950745 -0.283494
v -0.460642 1.950745 -0.473082
v -0.089964 1.950745 -0.542476
v 0.307781 0.968411 -0.505836
v 0.598950 0.968411 -0.302405
v 0.705526 0.968411 -0.024513
v 0.598950 0.968411 0.253379
v 0.307781 0.968411 0.456810
v -0.089964 0.968411 0.531271
v -0.487708 0.968411 0.456810
v -0.778878 0.968411 0.253379
v -0.885453 0.968411 -0.024513
v -0.778878 0.968411 -0.302405
v -0.487709 0.968411 -0.505836
v -0.089964 0.968411 -0.580297
v 0.298601 1.721588 -0.494726
v 0.583049 1.721588 -0.295991
v 0.687165 1.721588 -0.024513
v 0.583049 1.721588 0.246965
v 0.298601 1.759010 0.445700
v -0.089964 1.789225 0.518443
v -0.478528 1.751803 0.445700
v -0.762977 1.721588 0.246965
v -0.867092 1.721588 -0.024513
v -0.762977 1.721588 -0.295991
v -0.478528 1.721588 -0.494726
v -0.089964 1.721588 -0.567469
v 0.317254 1.482597 -0.517300
v 0.615358 1.482597 -0.309023
v 0.724472 1.482597 -0.024513
v 0.615358 1.482597 0.259997
v 0.317254 1.425260 0.468273
v -0.089964 1.400848 0.544508
v -0.497181 1.458185 0.468274
v -0.795286 1.482597 0.259998
v -0.904400 1.482597 -0.024513
v -0.795286 1.482597 -0.309023
v -0.497182 1.482597 -0.517299
v -0.089964 1.482597 -0.593534
v -0.089964 1.789225 0.518443
v -0.478528 1.751803 0.445700
v 0.298601 1.759010 0.445700
v 0.317254 1.425260 0.468273
v -0.089964 1.400848 0.544508
v -0.497181 1.458185 0.468274
v -0.089964 1.789225 0.518443
v -0.478528 1.751803 0.445700
v 0.298601 1.759010 0.445700
v 0.317254 1.425260 0.468273
v -0.089964 1.400848 0.544508
v -0.497181 1.458185 0.468274
v 0.185611 1.670153 0.409755
v 0.008081 1.683958 0.442990
v 0.194133 1.517667 0.420069
v 0.008081 1.506514 0.454899
v -0.208100 1.682315 0.442586
v -0.379140 1.665843 0.410566
v -0.208100 1.511358 0.454060
v -0.387351 1.536596 0.420502
v 0.762818 1.983643 -0.283494
v 0.862141 1.983643 -0.024513
v 0.762818 1.983643 0.234468
v 0.793797 1.754486 -0.295991
v 0.897913 1.754486 -0.024513
v 0.793797 1.754486 0.246965
v 1.007211 2.021794 -0.283494
v 1.106534 2.021794 -0.024513
v 1.007211 2.021794 0.234468
v 1.038191 1.792637 -0.295991
v 1.142306 1.792637 -0.024513
v 1.038191 1.792637 0.246965
v 0.897913 1.754486 -0.024513
v 1.142306 1.792637 -0.024513
v 0.793797 1.754486 0.246965
v 0.793797 1.754486 -0.295991
v 1.038191 1.792637 0.246965
v 1.038191 1.792637 -0.295991
v 0.933106 1.441124 -0.024513
v 1.177500 1.479274 -0.024513
v 0.828991 1.529038 0.246965
v 0.828991 1.529038 -0.295991
v 1.073384 1.567188 0.246965
v 1.073384 1.567188 -0.295991
v -0.900627 1.977069 0.234469
v -0.999950 1.977069 -0.024513
v -0.900628 1.977069 -0.283494
v -0.931607 1.747912 0.246965
v -1.035722 1.747912 -0.024513
v -0.931607 1.747912 -0.295990
v -1.084178 2.005722 0.234469
v -1.183501 2.005722 -0.024513
v -1.084178 2.005722 -0.283494
v -1.115158 1.776564 0.246965
v -1.219273 1.776564 -0.024513
v -1.115158 1.776564 -0.295990
v -1.065562 1.468845 -0.024513
v -1.249113 1.497498 -0.024513
v -0.961446 1.556759 -0.295990
v -0.961446 1.556759 0.246965
v -1.144997 1.585412 -0.295990
v -1.144997 1.585412 0.246965
vt 0.7276 0.1210
vt 0.7994 0.1477
vt 0.7276 0.1883
vt 0.8040 0.1581
vt 0.7515 0.2422
vt 0.8120 0.1631
vt 0.7928 0.2681
vt 0.8404 0.2592
vt 0.8212 0.1614
vt 0.8817 0.2178
vt 0.8292 0.1534
vt 0.9055 0.1550
vt 0.8338 0.1283
vt 0.9055 0.0877
vt 0.8292 0.1179
vt 0.8817 0.0338
vt 0.8212 0.1128
vt 0.8404 0.0079
vt 0.7928 0.0168
vt 0.8338 0.1413
vt 0.8040 0.1226
vt 0.8120 0.1146
vt 0.7515 0.0582
vt 0.5592 0.6246
vt 0.5514 0.6467
vt 0.5005 0.6366
vt 0.3534 0.4456
vt 0.3015 0.3627
vt 0.3583 0.3567
vt 0.1515 0.8296
vt 0.2332 0.7656
vt 0.2268 0.8240
vt 0.0751 0.8296
vt 0.1519 0.7717
vt 0.0077 0.7656
vt 0.0180 0.8240
vt 0.6535 0.1797
vt 0.7121 0.1007
vt 0.7122 0.1889
vt 0.6535 0.2940
vt 0.7122 0.2947
vt 0.7121 0.3897
vt 0.7942 0.7616
vt 0.8657 0.7001
vt 0.8729 0.7598
vt 0.7179 0.7616
vt 0.7933 0.7022
vt 0.6533 0.7003
vt 0.6645 0.7598
vt 0.3015 0.2505
vt 0.3534 0.1617
vt 0.3583 0.2528
vt 0.0130 0.4019
vt 0.1068 0.3598
vt 0.1023 0.4427
vt 0.1502 0.4781
vt 0.2215 0.5666
vt 0.1514 0.5718
vt 0.1017 0.4781
vt 0.0802 0.5718
vt 0.0269 0.5666
vt 0.4599 0.1934
vt 0.3737 0.1571
vt 0.4598 0.1112
vt 0.4599 0.2920
vt 0.3737 0.2130
vt 0.3737 0.3403
vt 0.4598 0.3806
vt 0.7968 0.4135
vt 0.8676 0.5017
vt 0.7942 0.5034
vt 0.7484 0.4135
vt 0.7231 0.5034
vt 0.1023 0.1781
vt 0.0077 0.1878
vt 0.0945 0.1280
vt 0.1068 0.2630
vt 0.0130 0.2219
vt 0.0161 0.2796
vt 0.1660 0.3607
vt 0.1660 0.2592
vt 0.1613 0.1702
vt 0.9804 0.2729
vt 0.9209 0.2201
vt 0.9804 0.2190
vt 0.3023 0.6967
vt 0.2753 0.6329
vt 0.3290 0.6291
vt 0.8708 0.5523
vt 0.7939 0.5639
vt 0.5014 0.2938
vt 0.5091 0.3866
vt 0.5110 0.1905
vt 0.5187 0.1043
vt 0.5120 0.0618
vt 0.8897 0.5196
vt 0.9305 0.4623
vt 0.9305 0.5226
vt 0.2251 0.6271
vt 0.1515 0.6326
vt 0.1613 0.4476
vt 0.3737 0.5917
vt 0.5083 0.5910
vt 0.5005 0.6130
vt 0.4091 0.4924
vt 0.5220 0.5764
vt 0.4704 0.4268
vt 0.5377 0.5731
vt 0.6025 0.4529
vt 0.5514 0.5822
vt 0.6379 0.5377
vt 0.5592 0.6010
vt 0.6379 0.6439
vt 0.6025 0.7431
vt 0.5377 0.6613
vt 0.5412 0.8088
vt 0.5220 0.6645
vt 0.4091 0.7827
vt 0.5083 0.6555
vt 0.3737 0.6979
vt 0.2277 0.3616
vt 0.2228 0.4527
vt 0.2288 0.6902
vt 0.1517 0.6959
vt 0.0769 0.6326
vt 0.0735 0.6959
vt 0.0150 0.6902
vt 0.5865 0.1874
vt 0.5801 0.0971
vt 0.0000 0.0000
vt 0.0000 0.0000
vt 0.0000 0.0000
vt 0.0000 0.0000
vt 0.0000 0.0000
vt 0.0000 0.0000
vt 0.8743 0.6401
vt 0.7936 0.6269
vt 0.7194 0.5639
vt 0.7155 0.6269
vt 0.2228 0.1620
vt 0.1531 0.1177
vt 0.2142 0.1070
vt 0.2277 0.2552
vt 0.2963 0.1522
vt 0.2872 0.0942
vt 0.7109 0.7022
vt 0.5948 0.3929
vt 0.6534 0.3966
vt 0.6012 0.2956
vt 0.6535 0.0884
vt 0.0694 0.7717
vt 0.2963 0.4588
vt 0.0000 0.0000
vt 0.0000 0.0000
vt 0.0000 0.0000
vt 0.0000 0.0000
vt 0.0000 0.0000
vt 0.0000 0.0000
vt 0.0000 0.0000
vt 0.0000 0.0000
vt 0.0000 0.0000
vt 0.0000 0.0000
vt 0.7354 0.2884
vt 0.7910 0.3085
vt 0.7579 0.3105
vt 0.0966 0.8594
vt 0.1283 0.9207
vt 0.0961 0.9473
vt 0.0000 0.0000
vt 0.0000 0.0000
vt 0.1285 0.8806
vt 0.1719 0.9207
vt 0.1915 0.9473
vt 0.6320 0.8390
vt 0.6022 0.9120
vt 0.6022 0.8653
vt 0.1696 0.8742
vt 0.7544 0.3561
vt 0.7984 0.3561
vt 0.7276 0.3919
vt 0.8274 0.3919
vt 0.8108 0.2839
vt 0.7198 0.8416
vt 0.6533 0.8035
vt 0.7198 0.7774
vt 0.0000 0.0000
vt 0.0000 0.0000
vt 0.0000 0.0000
vt 0.1542 0.1194
vt 0.2753 0.7672
vt 0.2486 0.7005
vt 0.7198 0.8969
vt 0.7863 0.8676
vt 0.7863 0.9230
vt 0.6533 0.8676
vt 0.1460 0.0604
vt 0.0792 0.0182
vt 0.1378 0.0079
vt 0.8428 0.3565
vt 0.9020 0.2841
vt 0.9020 0.3603
vt 0.0000 0.0000
vt 0.0000 0.0000
vt 0.0000 0.0000
vt 0.9209 0.1576
vt 0.9804 0.1565
vt 0.0952 0.1273
vt 0.7863 0.8035
vt 0.5858 0.8952
vt 0.5286 0.9685
vt 0.5050 0.8927
vt 0.8897 0.7565
vt 0.9482 0.6933
vt 0.9482 0.7558
vt 0.0000 0.0000
vt 0.0000 0.0000
vt 0.0000 0.0000
vt 0.0000 0.0000
vt 0.0000 0.0000
vt 0.0000 0.0000
vt 0.3108 0.5345
vt 0.2765 0.4789
vt 0.3386 0.4745
vt 0.2765 0.6133
vt 0.2486 0.5389
vt 0.3277 0.8593
vt 0.2711 0.7862
vt 0.3277 0.7830
vt 0.8600 0.9921
vt 0.8017 0.9307
vt 0.8600 0.9323
vt 0.5286 0.8390
vt 0.5868 0.8419
vt 0.2657 0.9196
vt 0.2486 0.8625
vt 0.4425 0.9070
vt 0.4641 0.8390
vt 0.4896 0.9070
vt 0.9749 0.4655
vt 0.9305 0.4123
vt 0.9749 0.4156
vt 0.3992 0.9070
vt 0.4170 0.9750
vt 0.3737 0.9750
vt 0.9333 0.6108
vt 0.9164 0.5416
vt 0.9600 0.5431
vt 0.4170 0.8390
vt 0.9164 0.6759
vt 0.8897 0.6092
vt 0.9323 0.8542
vt 0.8755 0.9119
vt 0.8763 0.8511
vt 0.8017 0.8542
vt 0.9923 0.0840
vt 0.9435 0.0113
vt 0.9923 0.0079
vt 0.9749 0.5258
vt 0.4531 0.0687
vt 0.5046 0.0154
vt 0.4641 0.9750
vt 0.0552 0.9224
vt 0.0333 0.8454
vt 0.0807 0.8471
vt 0.0333 0.9798
vt 0.0077 0.9207
vt 0.9417 0.1407
vt 0.9209 0.0875
vt 0.8024 0.8034
vt 0.8761 0.7774
vt 0.5537 0.0079
vt 0.5610 0.0542
vt 0.9330 0.8035
vt 0.7994 0.1347
vt 0.0161 0.3455
vt 0.1979 0.4745
vt 0.0655 0.4745
vt 0.3737 0.2801
vt 0.8467 0.4123
vt 0.9209 0.2740
vt 0.8897 0.4593
vt 0.5412 0.4123
vt 0.4704 0.8232
vt 0.0211 0.6271
vt 0.6320 0.9412
vt 0.1867 0.8454
vt 0.3290 0.7634
vt 0.6533 0.9230
vt 0.0870 0.0683
vt 0.8428 0.2839
vt 0.5868 0.9714
vt 0.8897 0.6940
vt 0.3386 0.6089
vt 0.8017 0.9904
vt 0.3224 0.9164
vt 0.3737 0.8390
vt 0.9600 0.6775
vt 0.9289 0.9149
vt 0.8043 0.9149
vt 0.4458 0.0224
vt 0.0807 0.9815
vt 0.9906 0.1373
vn 0.0487 0.9643 -0.2604
vn 0.1342 0.9721 -0.1921
vn 0.1849 0.9802 -0.0709
vn 0.1849 0.9802 0.0709
vn 0.1342 0.9721 0.1921
vn 0.0487 0.9643 0.2604
vn -0.0487 0.9643 0.2604
vn -0.1342 0.9721 0.1921
vn -0.1849 0.9802 0.0709
vn -0.1849 0.9802 -0.0709
vn 0.0000 1.0000 -0.0000
vn -0.1342 0.9721 -0.1921
vn -0.0487 0.9643 -0.2604
vn 0.0000 -1.0000 0.0000
vn -0.1807 -0.1876 -0.9655
vn -0.5596 -0.2126 -0.8010
vn -0.9037 -0.2513 -0.3466
vn -0.9037 -0.2513 0.3466
vn -0.5726 -0.0230 0.8195
vn -0.1838 0.0422 0.9820
vn 0.1838 0.0422 0.9820
vn 0.5726 -0.0230 0.8195
vn 0.9037 -0.2513 0.3466
vn 0.9037 -0.2513 -0.3466
vn 0.5596 -0.2126 -0.8010
vn 0.1807 -0.1876 -0.9655
vn -0.1655 0.4370 -0.8841
vn -0.5011 0.4843 -0.7172
vn -0.7790 0.5512 -0.2988
vn -0.7790 0.5512 0.2988
vn -0.5011 0.4843 0.7172
vn -0.1655 0.4370 0.8841
vn 0.1655 0.4370 0.8841
vn 0.5011 0.4843 0.7172
vn 0.7790 0.5512 0.2988
vn 0.7790 0.5512 -0.2988
vn 0.5011 0.4843 -0.7172
vn 0.1655 0.4370 -0.8841
vn 0.1830 0.1066 -0.9773
vn 0.5685 0.1212 -0.8137
vn -0.0083 0.0533 0.9985
vn 0.1540 -0.9863 0.0590
vn 0.5792 0.1223 0.8060
vn 0.1921 0.1278 0.9730
vn -0.1941 0.1233 0.9732
vn -0.5771 0.1221 0.8075
vn 0.0083 0.0533 0.9985
vn 0.0083 0.0533 -0.9985
vn -0.5685 0.1212 -0.8137
vn -0.1830 0.1066 -0.9773
vn 0.1009 -0.8362 -0.5391
vn 0.2858 -0.8666 -0.4090
vn 0.4057 -0.9007 -0.1556
vn 0.4057 -0.9007 0.1556
vn 0.2858 -0.8666 0.4090
vn 0.1009 -0.8362 0.5391
vn -0.1009 -0.8362 0.5391
vn -0.2858 -0.8666 0.4090
vn -0.4057 -0.9007 0.1556
vn -0.4057 -0.9007 -0.1556
vn -0.2858 -0.8666 -0.4090
vn -0.1009 -0.8362 -0.5391
vn -0.9239 0.1442 -0.3543
vn -0.9239 0.1442 0.3543
vn -0.5619 0.1206 0.8184
vn 0.0000 0.0000 1.0000
vn 0.5530 0.1197 0.8245
vn 0.9239 0.1442 0.3543
vn 0.9239 0.1442 -0.3543
vn 0.4628 0.1105 0.8795
vn 0.1831 -0.0988 0.9781
vn -0.1829 -0.1105 0.9769
vn -0.4628 0.1105 0.8795
vn 0.3695 0.0479 0.9280
vn -0.3348 0.0449 0.9412
vn 0.1791 0.0763 0.9809
vn 0.1167 0.5771 0.8083
vn 0.6431 0.0513 0.7641
vn 0.1214 -0.5011 0.8569
vn -0.1746 0.0659 0.9824
vn -0.1152 -0.4870 0.8658
vn -0.5742 0.0548 0.8169
vn -0.0683 0.5871 0.8066
vn -0.1540 0.9863 -0.0590
vn -0.0083 0.0533 -0.9985
vn 0.1540 -0.9863 -0.0590
vn -0.1540 0.9863 0.0590
vn 0.9394 0.1055 0.3261
vn 0.1442 -0.9239 0.3545
vn 0.1442 -0.9239 -0.3545
vn -0.9239 -0.1442 -0.3543
vn 0.0000 0.0000 -1.0000
vn -0.9394 -0.1055 0.3261
vn 0.1540 0.9863 0.0590
vn 0.1540 0.9863 -0.0590
vn -0.1540 -0.9863 -0.0590
vn -0.1540 -0.9863 0.0590
vn 0.9239 -0.1442 0.3543
vn -0.1442 -0.9239 -0.3545
vn -0.1442 -0.9239 0.3545
vn 0.9394 -0.1004 -0.3277
vn -0.9394 0.1004 -0.3277
vn -0.4568 -0.1943 0.8681
vn 0.4568 -0.1943 0.8681
vn 0.5667 0.1444 0.8111
vn 0.1819 0.1504 0.9717
vn -0.1819 0.1504 0.9717
vn -0.5671 0.1393 0.8118
vn -0.5770 0.0990 0.8108
vn 0.5782 0.0872 0.8112
vn 0.5775 -0.0409 0.8154
vn 0.1893 -0.1103 0.9757
vn -0.1949 -0.0852 0.9771
vn -0.5743 -0.0362 0.8178
vn 0.1886 0.0658 0.9799
vn -0.1914 0.0873 0.9776
vn -0.9394 -0.1055 -0.3261
vn 0.9394 0.1055 -0.3261
vn -0.9239 -0.1442 0.3543
vn 0.9394 -0.1004 0.3277
vn 0.9239 -0.1442 -0.3543
vn -0.9394 0.1004 0.3277
s off
f 37/1/1 4/2/1 38/3/1
f 38/3/2 6/4/2 39/5/2
f 39/5/3 8/6/3 40/7/3
f 8/6/4 41/8/4 40/7/4
f 10/9/5 42/10/5 41/8/5
f 12/11/6 43/12/6 42/10/6
f 43/12/7 16/13/7 44/14/7
f 44/14/8 18/15/8 45/16/8
f 45/16/9 20/17/9 46/18/9
f 20/17/10 47/19/10 46/18/10
f 16/13/11 14/20/11 24/21/11
f 22/22/12 48/23/12 47/19/12
f 24/21/13 37/1/13 48/23/13
f 13/24/14 15/25/14 23/26/14
f 71/27/15 25/28/15 72/29/15
f 70/30/16 36/31/16 71/32/16
f 69/33/17 35/34/17 70/30/17
f 33/35/18 69/33/18 68/36/18
f 32/37/19 68/38/19 67/39/19
f 31/40/20 67/39/20 66/41/20
f 65/42/21 31/40/21 66/41/21
f 64/43/22 30/44/22 65/45/22
f 63/46/23 29/47/23 64/43/23
f 27/48/24 63/46/24 62/49/24
f 26/50/25 62/51/25 61/52/25
f 25/28/26 61/52/26 72/29/26
f 48/53/27 60/54/27 59/55/27
f 47/56/28 59/57/28 58/58/28
f 46/59/29 58/58/29 57/60/29
f 56/61/30 46/59/30 57/60/30
f 55/62/31 45/63/31 56/64/31
f 54/65/32 44/66/32 55/62/32
f 42/67/33 54/65/33 53/68/33
f 41/69/34 53/70/34 52/71/34
f 40/72/35 52/71/35 51/73/35
f 50/74/36 40/75/36 51/76/36
f 49/77/37 39/78/37 50/74/37
f 60/54/38 38/79/38 49/77/38
f 84/80/39 49/77/39 73/81/39
f 73/81/40 50/74/40 74/82/40
f 52/83/41 122/84/41 119/85/41
f 75/86/42 122/87/42 76/88/42
f 52/71/43 77/89/43 76/90/43
f 53/68/44 78/91/44 77/92/44
f 78/91/45 55/62/45 79/93/45
f 79/93/46 56/64/46 80/94/46
f 56/64/47 144/95/47 80/94/47
f 58/96/48 146/97/48 143/98/48
f 58/58/49 83/99/49 82/100/49
f 59/55/50 84/80/50 83/101/50
f 72/102/51 3/103/51 1/104/51
f 61/105/52 5/106/52 3/103/52
f 62/107/53 7/108/53 5/106/53
f 7/108/54 64/109/54 9/110/54
f 9/110/55 65/111/55 11/112/55
f 11/112/56 66/113/56 13/24/56
f 66/113/57 15/25/57 13/24/57
f 67/114/58 17/115/58 15/25/58
f 68/116/59 19/117/59 17/115/59
f 19/117/60 70/118/60 21/119/60
f 21/119/61 71/120/61 23/26/61
f 23/26/62 72/102/62 1/104/62
f 83/101/50 96/121/50 95/122/50
f 82/100/49 95/123/49 94/124/49
f 81/125/63 94/124/63 93/126/63
f 92/127/64 81/125/64 93/126/64
f 91/128/65 80/94/65 92/129/65
f 77/130/66 97/131/66 99/132/66
f 91/133/66 101/134/66 102/135/66
f 76/90/67 89/136/67 88/137/67
f 75/138/68 88/137/68 87/139/68
f 86/140/69 75/141/69 87/142/69
f 85/143/40 74/82/40 86/140/40
f 96/121/39 73/81/39 85/143/39
f 25/28/39 85/143/39 26/50/39
f 26/50/40 86/140/40 27/144/40
f 27/144/69 87/142/69 28/145/69
f 87/139/68 29/47/68 28/146/68
f 88/137/70 30/44/70 29/47/70
f 89/147/71 31/40/71 30/148/71
f 90/149/72 32/37/72 31/40/72
f 32/37/73 92/129/73 33/150/73
f 33/35/64 93/126/64 34/151/64
f 93/126/63 35/34/63 34/151/63
f 94/124/49 36/31/49 35/34/49
f 95/122/50 25/28/50 36/152/50
f 99/132/66 103/153/66 105/154/66
f 101/134/66 106/155/66 107/156/66
f 90/157/66 100/158/66 101/134/66
f 79/159/66 102/135/66 98/160/66
f 78/161/66 98/160/66 97/131/66
f 89/162/66 99/132/66 100/158/66
f 104/163/74 116/164/74 114/165/74
f 105/166/75 111/167/75 106/168/75
f 102/135/66 107/156/66 108/169/66
f 98/160/66 108/169/66 104/170/66
f 100/158/66 105/154/66 106/155/66
f 97/131/66 104/170/66 103/153/66
f 109/171/76 112/172/76 111/167/76
f 106/168/77 112/172/77 107/173/77
f 103/174/78 112/175/78 110/176/78
f 105/166/79 110/177/79 109/171/79
f 113/178/80 116/164/80 115/179/80
f 104/163/81 113/178/81 103/180/81
f 103/180/82 115/179/82 107/181/82
f 108/182/83 115/179/83 116/164/83
f 118/183/84 125/184/84 124/185/84
f 122/186/66 129/187/66 131/188/66
f 50/74/85 120/189/85 74/82/85
f 75/86/86 120/190/86 121/191/86
f 51/192/87 117/193/87 50/194/87
f 51/192/84 119/195/84 118/183/84
f 126/196/69 124/197/69 127/198/69
f 124/199/68 128/200/68 127/201/68
f 126/202/66 130/203/66 134/204/66
f 119/85/41 128/205/41 125/206/41
f 117/207/85 126/196/85 120/189/85
f 118/183/87 123/208/87 117/193/87
f 130/209/88 139/210/88 136/211/88
f 133/212/66 137/213/66 139/214/66
f 128/215/66 131/188/66 133/216/66
f 121/217/66 132/218/66 129/187/66
f 127/219/66 133/216/66 130/203/66
f 120/220/66 134/204/66 132/218/66
f 135/221/89 139/222/89 137/223/89
f 135/221/90 140/224/90 136/225/90
f 129/226/91 137/227/91 131/228/91
f 132/229/92 140/230/92 138/231/92
f 130/209/69 140/232/69 134/233/69
f 129/226/93 138/234/93 135/235/93
f 142/236/94 149/237/94 148/238/94
f 152/239/92 155/240/92 157/241/92
f 57/242/95 141/243/95 56/244/95
f 81/245/96 146/246/96 82/247/96
f 57/242/94 143/248/94 142/236/94
f 81/245/97 144/249/97 145/250/97
f 150/251/64 148/252/64 151/253/64
f 148/252/63 152/254/63 151/253/63
f 145/255/98 155/256/98 146/257/98
f 143/98/48 152/239/48 149/258/48
f 141/259/47 150/260/47 144/95/47
f 142/236/95 147/261/95 141/243/95
f 153/262/99 157/263/99 155/264/99
f 153/262/100 158/265/100 154/266/100
f 145/255/101 156/267/101 153/268/101
f 151/253/102 157/269/102 154/270/102
f 144/95/66 158/271/66 156/272/66
f 151/253/64 158/273/64 150/251/64
f 37/1/1 2/274/1 4/2/1
f 38/3/2 4/2/2 6/4/2
f 39/5/3 6/4/3 8/6/3
f 8/6/4 10/9/4 41/8/4
f 10/9/5 12/11/5 42/10/5
f 12/11/6 14/20/6 43/12/6
f 43/12/7 14/20/7 16/13/7
f 44/14/8 16/13/8 18/15/8
f 45/16/9 18/15/9 20/17/9
f 20/17/10 22/22/10 47/19/10
f 6/4/11 4/2/11 12/11/11
f 2/274/11 24/21/11 14/20/11
f 22/22/11 20/17/11 18/15/11
f 18/15/11 16/13/11 22/22/11
f 14/20/11 12/11/11 4/2/11
f 10/9/11 8/6/11 6/4/11
f 4/2/11 2/274/11 14/20/11
f 22/22/11 16/13/11 24/21/11
f 12/11/11 10/9/11 6/4/11
f 22/22/12 24/21/12 48/23/12
f 24/21/13 2/274/13 37/1/13
f 23/26/14 1/104/14 13/24/14
f 3/103/14 5/106/14 11/112/14
f 7/108/14 9/110/14 5/106/14
f 11/112/14 13/24/14 1/104/14
f 15/25/14 17/115/14 21/119/14
f 19/117/14 21/119/14 17/115/14
f 1/104/14 3/103/14 11/112/14
f 9/110/14 11/112/14 5/106/14
f 15/25/14 21/119/14 23/26/14
f 71/27/15 36/152/15 25/28/15
f 70/30/16 35/34/16 36/31/16
f 69/33/17 34/151/17 35/34/17
f 33/35/18 34/151/18 69/33/18
f 32/37/103 33/150/103 68/38/103
f 31/40/20 32/37/20 67/39/20
f 65/42/21 30/148/21 31/40/21
f 64/43/104 29/47/104 30/44/104
f 63/46/23 28/146/23 29/47/23
f 27/48/24 28/146/24 63/46/24
f 26/50/25 27/144/25 62/51/25
f 25/28/26 26/50/26 61/52/26
f 48/53/27 37/275/27 60/54/27
f 47/56/28 48/276/28 59/57/28
f 46/59/29 47/56/29 58/58/29
f 56/61/30 45/277/30 46/59/30
f 55/62/31 44/66/31 45/63/31
f 54/65/32 43/278/32 44/66/32
f 42/67/33 43/278/33 54/65/33
f 41/69/34 42/279/34 53/70/34
f 40/72/35 41/69/35 52/71/35
f 50/74/36 39/78/36 40/75/36
f 49/77/37 38/79/37 39/78/37
f 60/54/38 37/275/38 38/79/38
f 84/80/39 60/54/39 49/77/39
f 73/81/40 49/77/40 50/74/40
f 52/83/41 76/280/41 122/84/41
f 75/86/42 121/191/42 122/87/42
f 52/71/105 53/70/105 77/89/105
f 53/68/106 54/65/106 78/91/106
f 78/91/107 54/65/107 55/62/107
f 79/93/108 55/62/108 56/64/108
f 56/64/47 141/259/47 144/95/47
f 58/96/48 82/281/48 146/97/48
f 58/58/49 59/57/49 83/99/49
f 59/55/50 60/54/50 84/80/50
f 72/102/51 61/105/51 3/103/51
f 61/105/52 62/107/52 5/106/52
f 62/107/53 63/282/53 7/108/53
f 7/108/54 63/282/54 64/109/54
f 9/110/55 64/109/55 65/111/55
f 11/112/56 65/111/56 66/113/56
f 66/113/57 67/114/57 15/25/57
f 67/114/58 68/116/58 17/115/58
f 68/116/59 69/283/59 19/117/59
f 19/117/60 69/283/60 70/118/60
f 21/119/61 70/118/61 71/120/61
f 23/26/62 71/120/62 72/102/62
f 83/101/50 84/80/50 96/121/50
f 82/100/49 83/99/49 95/123/49
f 81/125/63 82/100/63 94/124/63
f 92/127/64 80/284/64 81/125/64
f 91/128/109 79/93/109 80/94/109
f 77/130/66 78/161/66 97/131/66
f 91/133/66 90/157/66 101/134/66
f 76/90/110 77/89/110 89/136/110
f 75/138/68 76/90/68 88/137/68
f 86/140/69 74/82/69 75/141/69
f 85/143/40 73/81/40 74/82/40
f 96/121/39 84/80/39 73/81/39
f 25/28/39 96/121/39 85/143/39
f 26/50/40 85/143/40 86/140/40
f 27/144/69 86/140/69 87/142/69
f 87/139/68 88/137/68 29/47/68
f 88/137/111 89/136/111 30/44/111
f 89/147/112 90/149/112 31/40/112
f 90/149/113 91/128/113 32/37/113
f 32/37/114 91/128/114 92/129/114
f 33/35/64 92/127/64 93/126/64
f 93/126/63 94/124/63 35/34/63
f 94/124/49 95/123/49 36/31/49
f 95/122/50 96/121/50 25/28/50
f 99/132/66 97/131/66 103/153/66
f 101/134/66 100/158/66 106/155/66
f 90/157/66 89/162/66 100/158/66
f 79/159/66 91/133/66 102/135/66
f 78/161/66 79/159/66 98/160/66
f 89/162/66 77/130/66 99/132/66
f 104/163/74 108/182/74 116/164/74
f 105/166/75 109/171/75 111/167/75
f 102/135/66 101/134/66 107/156/66
f 98/160/66 102/135/66 108/169/66
f 100/158/66 99/132/66 105/154/66
f 97/131/66 98/160/66 104/170/66
f 109/171/115 110/177/115 112/172/115
f 106/168/77 111/167/77 112/172/77
f 103/174/78 107/285/78 112/175/78
f 105/166/79 103/286/79 110/177/79
f 113/178/116 114/165/116 116/164/116
f 104/163/81 114/165/81 113/178/81
f 103/180/82 113/178/82 115/179/82
f 108/182/83 107/181/83 115/179/83
f 118/183/84 119/195/84 125/184/84
f 122/186/66 121/217/66 129/187/66
f 50/74/85 117/207/85 120/189/85
f 75/86/86 74/287/86 120/190/86
f 51/192/87 118/183/87 117/193/87
f 51/192/84 52/288/84 119/195/84
f 126/196/69 123/289/69 124/197/69
f 124/199/68 125/290/68 128/200/68
f 126/202/66 127/219/66 130/203/66
f 119/85/41 122/84/41 128/205/41
f 117/207/85 123/289/85 126/196/85
f 118/183/87 124/185/87 123/208/87
f 130/209/68 133/291/68 139/210/68
f 133/212/66 131/292/66 137/213/66
f 128/215/66 122/186/66 131/188/66
f 121/217/66 120/220/66 132/218/66
f 127/219/66 128/215/66 133/216/66
f 120/220/66 126/202/66 134/204/66
f 135/221/89 136/225/89 139/222/89
f 135/221/90 138/293/90 140/224/90
f 129/226/117 135/235/117 137/227/117
f 132/229/92 134/294/92 140/230/92
f 130/209/118 136/211/118 140/232/118
f 129/226/119 132/295/119 138/234/119
f 142/236/94 143/248/94 149/237/94
f 152/239/92 146/97/92 155/240/92
f 57/242/95 142/236/95 141/243/95
f 81/245/96 145/250/96 146/246/96
f 57/242/94 58/296/94 143/248/94
f 81/245/97 80/297/97 144/249/97
f 150/251/64 147/298/64 148/252/64
f 148/252/63 149/299/63 152/254/63
f 145/255/120 153/268/120 155/256/120
f 143/98/48 146/97/48 152/239/48
f 141/259/47 147/300/47 150/260/47
f 142/236/95 148/238/95 147/261/95
f 153/262/99 154/266/99 157/263/99
f 153/262/100 156/301/100 158/265/100
f 145/255/121 144/302/121 156/267/121
f 151/253/63 152/254/63 157/269/63
f 144/95/66 150/260/66 158/271/66
f 151/253/122 154/270/122 158/273/122
