# Blender v2.78 (sub 0) OBJ File: 'sprinkler.blend'
# www.blender.org
mtllib sprinkler.mtl
o Cylinder
v 0.000000 0.834146 -1.000000
v 0.000000 1.354506 -1.000000
v 0.195090 0.834146 -0.980785
v 0.195090 1.354506 -0.980785
v 0.382683 0.834146 -0.923880
v 0.382683 1.354506 -0.923880
v 0.555570 0.834146 -0.831470
v 0.555570 1.354506 -0.831470
v 0.707107 0.834146 -0.707107
v 0.707107 1.354506 -0.707107
v 0.831470 0.834146 -0.555570
v 0.831470 1.354506 -0.555570
v 0.923880 0.834146 -0.382683
v 0.923880 1.354506 -0.382683
v 0.980785 0.834146 -0.195090
v 0.980785 1.354506 -0.195090
v 1.000000 0.834146 -0.000000
v 1.000000 1.354506 -0.000000
v 0.980785 0.834146 0.195090
v 0.980785 1.354506 0.195090
v 0.923880 0.834146 0.382683
v 0.923880 1.354506 0.382683
v 0.831470 0.834146 0.555570
v 0.831470 1.354506 0.555570
v 0.707107 0.834146 0.707107
v 0.707107 1.354506 0.707107
v 0.555570 0.834146 0.831470
v 0.555570 1.354506 0.831470
v 0.382683 0.834146 0.923880
v 0.382683 1.354506 0.923880
v 0.195090 0.834146 0.980785
v 0.195090 1.354506 0.980785
v -0.000000 0.834146 1.000000
v -0.000000 1.354506 1.000000
v -0.195091 0.834146 0.980785
v -0.195091 1.354506 0.980785
v -0.382684 0.834146 0.923879
v -0.382684 1.354506 0.923879
v -0.555571 0.834146 0.831469
v -0.555571 1.354506 0.831469
v -0.707107 0.834146 0.707106
v -0.707107 1.354506 0.707106
v -0.831470 0.834146 0.555570
v -0.831470 1.354506 0.555570
v -0.923880 0.834146 0.382683
v -0.923880 1.354506 0.382683
v -0.980785 0.834146 0.195089
v -0.980785 1.354506 0.195089
v -1.000000 0.834146 -0.000001
v -1.000000 1.354506 -0.000001
v -0.980785 0.834146 -0.195091
v -0.980785 1.354506 -0.195091
v -0.923879 0.834146 -0.382684
v -0.923879 1.354506 -0.382684
v -0.831469 0.834146 -0.555571
v -0.831469 1.354506 -0.555571
v -0.707106 0.834146 -0.707108
v -0.707106 1.354506 -0.707108
v -0.555569 0.834146 -0.831470
v -0.555569 1.354506 -0.831470
v -0.382682 0.834146 -0.923880
v -0.382682 1.354506 -0.923880
v -0.195089 0.834146 -0.980786
v -0.195089 1.354506 -0.980786
v 0.000000 0.609200 -1.250000
v 0.000000 1.109200 -1.250000
v 0.243863 0.609200 -1.225982
v 0.243863 1.109200 -1.225982
v 0.478354 0.609200 -1.154849
v 0.478354 1.109200 -1.154849
v 0.694463 0.609200 -1.039337
v 0.694463 1.109200 -1.039337
v 0.883884 0.609200 -0.883884
v 0.883884 1.109200 -0.883884
v 1.039337 0.609200 -0.694463
v 1.039337 1.109200 -0.694463
v 1.154849 0.609200 -0.478354
v 1.154849 1.109200 -0.478354
v 1.225982 0.609200 -0.243863
v 1.225982 1.109200 -0.243863
v 1.250000 0.609200 -0.000000
v 1.250000 1.109200 -0.000000
v 1.225982 0.609200 0.243863
v 1.225982 1.109200 0.243863
v 1.154850 0.609200 0.478354
v 1.154850 1.109200 0.478354
v 1.039337 0.609200 0.694463
v 1.039337 1.109200 0.694463
v 0.883884 0.609200 0.883884
v 0.883884 1.109200 0.883884
v 0.694463 0.609200 1.039337
v 0.694463 1.109200 1.039337
v 0.478354 0.609200 1.154850
v 0.478354 1.109200 1.154850
v 0.243863 0.609200 1.225982
v 0.243863 1.109200 1.225982
v -0.000000 0.609200 1.250000
v -0.000000 1.109200 1.250000
v -0.243863 0.609200 1.225981
v -0.243863 1.109200 1.225981
v -0.478355 0.609200 1.154849
v -0.478355 1.109200 1.154849
v -0.694463 0.609200 1.039337
v -0.694463 1.109200 1.039337
v -0.883884 0.609200 0.883883
v -0.883884 1.109200 0.883883
v -1.039338 0.609200 0.694462
v -1.039338 1.109200 0.694462
v -1.154850 0.609200 0.478353
v -1.154850 1.109200 0.478353
v -1.225982 0.609200 0.243862
v -1.225982 1.109200 0.243862
v -1.250000 0.609200 -0.000001
v -1.250000 1.109200 -0.000001
v -1.225981 0.609200 -0.243864
v -1.225981 1.109200 -0.243864
v -1.154849 0.609200 -0.478356
v -1.154849 1.109200 -0.478356
v -1.039336 0.609200 -0.694464
v -1.039336 1.109200 -0.694464
v -0.883882 0.609200 -0.883885
v -0.883882 1.109200 -0.883885
v -0.694461 0.609200 -1.039338
v -0.694461 1.109200 -1.039338
v -0.478353 0.609200 -1.154850
v -0.478353 1.109200 -1.154850
v -0.243861 0.609200 -1.225982
v -0.243861 1.109200 -1.225982
v 0.000000 -0.750000 -0.750000
v 0.000000 0.750000 -0.750000
v 0.146318 -0.750000 -0.735589
v 0.146318 0.750000 -0.735589
v 0.287013 -0.750000 -0.692910
v 0.287013 0.750000 -0.692910
v 0.416678 -0.750000 -0.623602
v 0.416678 0.750000 -0.623602
v 0.530330 -0.750000 -0.530330
v 0.530330 0.750000 -0.530330
v 0.623602 -0.750000 -0.416678
v 0.623602 0.750000 -0.416678
v 0.692910 -0.750000 -0.287013
v 0.692910 0.750000 -0.287013
v 0.735589 -0.750000 -0.146318
v 0.735589 0.750000 -0.146318
v 0.750000 -0.750000 -0.000000
v 0.750000 0.750000 -0.000000
v 0.735589 -0.750000 0.146318
v 0.735589 0.750000 0.146318
v 0.692910 -0.750000 0.287012
v 0.692910 0.750000 0.287012
v 0.623602 -0.750000 0.416678
v 0.623602 0.750000 0.416678
v 0.530330 -0.750000 0.530330
v 0.530330 0.750000 0.530330
v 0.416678 -0.750000 0.623602
v 0.416678 0.750000 0.623602
v 0.287012 -0.750000 0.692910
v 0.287012 0.750000 0.692910
v 0.146318 -0.750000 0.735589
v 0.146318 0.750000 0.735589
v -0.000000 -0.750000 0.750000
v -0.000000 0.750000 0.750000
v -0.146318 -0.750000 0.735589
v -0.146318 0.750000 0.735589
v -0.287013 -0.750000 0.692909
v -0.287013 0.750000 0.692909
v -0.416678 -0.750000 0.623602
v -0.416678 0.750000 0.623602
v -0.530330 -0.750000 0.530330
v -0.530330 0.750000 0.530330
v -0.623603 -0.750000 0.416677
v -0.623603 0.750000 0.416677
v -0.692910 -0.750000 0.287012
v -0.692910 0.750000 0.287012
v -0.735589 -0.750000 0.146317
v -0.735589 0.750000 0.146317
v -0.750000 -0.750000 -0.000001
v -0.750000 0.750000 -0.000001
v -0.735589 -0.750000 -0.146319
v -0.735589 0.750000 -0.146319
v -0.692909 -0.750000 -0.287013
v -0.692909 0.750000 -0.287013
v -0.623602 -0.750000 -0.416678
v -0.623602 0.750000 -0.416678
v -0.530329 -0.750000 -0.530331
v -0.530329 0.750000 -0.530331
v -0.416677 -0.750000 -0.623603
v -0.416677 0.750000 -0.623603
v -0.287012 -0.750000 -0.692910
v -0.287012 0.750000 -0.692910
v -0.146317 -0.750000 -0.735589
v -0.146317 0.750000 -0.735589
vt 0.9739 0.3386
vt 0.9032 0.3386
vt 0.9032 0.3128
vt 0.9739 0.3128
vt 0.9032 0.2875
vt 0.9739 0.2875
vt 0.9032 0.2637
vt 0.9739 0.2637
vt 0.9032 0.2423
vt 0.9739 0.2423
vt 0.9032 0.2240
vt 0.9739 0.2240
vt 0.5230 0.9494
vt 0.4522 0.9494
vt 0.4522 0.9279
vt 0.5230 0.9279
vt 0.4522 0.9041
vt 0.5230 0.9041
vt 0.4522 0.8788
vt 0.5230 0.8788
vt 0.4522 0.8530
vt 0.5230 0.8530
vt 0.4522 0.8277
vt 0.5230 0.8277
vt 0.4522 0.8039
vt 0.5230 0.8039
vt 0.4522 0.7824
vt 0.5230 0.7824
vt 0.9908 0.1941
vt 0.9201 0.1941
vt 0.9201 0.1726
vt 0.9908 0.1726
vt 0.9201 0.1488
vt 0.9908 0.1488
vt 0.9201 0.1235
vt 0.9908 0.1235
vt 0.9201 0.0977
vt 0.9908 0.0977
vt 0.9201 0.0724
vt 0.9908 0.0724
vt 0.9201 0.0486
vt 0.9908 0.0486
vt 0.9201 0.0271
vt 0.9908 0.0271
vt 0.9201 0.0089
vt 0.9908 0.0089
vt 0.9017 0.1941
vt 0.8309 0.1941
vt 0.8309 0.1726
vt 0.9017 0.1726
vt 0.8309 0.1488
vt 0.9017 0.1488
vt 0.8309 0.1235
vt 0.9017 0.1235
vt 0.8309 0.0977
vt 0.9017 0.0977
vt 0.8309 0.0724
vt 0.9017 0.0724
vt 0.8309 0.0486
vt 0.9017 0.0486
vt 0.8309 0.0271
vt 0.9017 0.0271
vt 0.8309 0.0089
vt 0.9017 0.0089
vt 0.9739 0.4275
vt 0.9032 0.4275
vt 0.9032 0.4092
vt 0.9739 0.4092
vt 0.9032 0.3878
vt 0.9739 0.3878
vt 0.4879 0.5505
vt 0.4617 0.5454
vt 0.4371 0.5356
vt 0.4149 0.5212
vt 0.3961 0.5030
vt 0.3813 0.4815
vt 0.3711 0.4577
vt 0.3659 0.4324
vt 0.3659 0.4066
vt 0.3711 0.3813
vt 0.3813 0.3575
vt 0.3961 0.3360
vt 0.4149 0.3178
vt 0.4371 0.3035
vt 0.4617 0.2936
vt 0.4879 0.2886
vt 0.5145 0.2886
vt 0.5407 0.2936
vt 0.5653 0.3035
vt 0.5875 0.3178
vt 0.6063 0.3360
vt 0.6211 0.3575
vt 0.6313 0.3813
vt 0.6365 0.4066
vt 0.6365 0.4324
vt 0.6313 0.4577
vt 0.6211 0.4815
vt 0.6063 0.5030
vt 0.5875 0.5212
vt 0.5653 0.5356
vt 0.5407 0.5454
vt 0.5145 0.5505
vt 0.9032 0.3639
vt 0.9739 0.3639
vt 0.6063 0.0564
vt 0.6211 0.0778
vt 0.6313 0.1016
vt 0.6365 0.1269
vt 0.6365 0.1527
vt 0.6313 0.1780
vt 0.6211 0.2019
vt 0.6063 0.2233
vt 0.5875 0.2416
vt 0.5653 0.2559
vt 0.5407 0.2658
vt 0.5145 0.2708
vt 0.4879 0.2708
vt 0.4617 0.2658
vt 0.4371 0.2559
vt 0.4149 0.2416
vt 0.3961 0.2233
vt 0.3813 0.2019
vt 0.3711 0.1780
vt 0.3659 0.1527
vt 0.3659 0.1269
vt 0.3711 0.1016
vt 0.3813 0.0778
vt 0.3961 0.0564
vt 0.4149 0.0381
vt 0.4371 0.0238
vt 0.4617 0.0139
vt 0.4879 0.0089
vt 0.5145 0.0089
vt 0.5407 0.0139
vt 0.5653 0.0238
vt 0.5875 0.0381
vt 0.8766 0.7115
vt 0.8086 0.7115
vt 0.8086 0.6793
vt 0.8766 0.6793
vt 0.8086 0.6476
vt 0.8766 0.6476
vt 0.8086 0.6178
vt 0.8766 0.6178
vt 0.8086 0.5910
vt 0.8766 0.5910
vt 0.8086 0.5682
vt 0.8766 0.5682
vt 0.3659 0.7824
vt 0.4339 0.7824
vt 0.4339 0.8092
vt 0.3659 0.8092
vt 0.4339 0.8390
vt 0.3659 0.8390
vt 0.4339 0.8706
vt 0.3659 0.8706
vt 0.4339 0.9029
vt 0.3659 0.9029
vt 0.4339 0.9345
vt 0.3659 0.9345
vt 0.4339 0.9643
vt 0.3659 0.9643
vt 0.4339 0.9911
vt 0.3659 0.9911
vt 0.9629 0.7997
vt 0.8949 0.7997
vt 0.8949 0.7729
vt 0.9629 0.7729
vt 0.8949 0.7431
vt 0.9629 0.7431
vt 0.8949 0.7115
vt 0.9629 0.7115
vt 0.8949 0.6793
vt 0.9629 0.6793
vt 0.8949 0.6476
vt 0.9629 0.6476
vt 0.8949 0.6178
vt 0.9629 0.6178
vt 0.8949 0.5910
vt 0.9629 0.5910
vt 0.8949 0.5682
vt 0.9629 0.5682
vt 0.8848 0.4555
vt 0.8168 0.4555
vt 0.8168 0.4287
vt 0.8848 0.4287
vt 0.8168 0.3989
vt 0.8848 0.3989
vt 0.8168 0.3673
vt 0.8848 0.3673
vt 0.8168 0.3351
vt 0.8848 0.3351
vt 0.8168 0.3034
vt 0.8848 0.3034
vt 0.8168 0.2736
vt 0.8848 0.2736
vt 0.8168 0.2468
vt 0.8848 0.2468
vt 0.8168 0.2240
vt 0.8848 0.2240
vt 0.8766 0.8225
vt 0.8086 0.8225
vt 0.8086 0.7997
vt 0.8766 0.7997
vt 0.8086 0.7729
vt 0.8766 0.7729
vt 0.2277 0.6751
vt 0.1950 0.6814
vt 0.1617 0.6814
vt 0.1290 0.6751
vt 0.0982 0.6628
vt 0.0705 0.6449
vt 0.0469 0.6221
vt 0.0284 0.5953
vt 0.0157 0.5655
vt 0.0092 0.5338
vt 0.0092 0.5016
vt 0.0157 0.4700
vt 0.0284 0.4402
vt 0.0469 0.4134
vt 0.0705 0.3906
vt 0.0982 0.3727
vt 0.1290 0.3603
vt 0.1617 0.3540
vt 0.1950 0.3540
vt 0.2277 0.3603
vt 0.2585 0.3727
vt 0.2862 0.3906
vt 0.3097 0.4134
vt 0.3283 0.4402
vt 0.3410 0.4700
vt 0.3475 0.5016
vt 0.3475 0.5338
vt 0.3410 0.5655
vt 0.3283 0.5953
vt 0.3097 0.6221
vt 0.2862 0.6449
vt 0.2585 0.6628
vt 0.8086 0.7431
vt 0.8766 0.7431
vt 0.3475 0.1565
vt 0.3475 0.1887
vt 0.3410 0.2203
vt 0.3283 0.2501
vt 0.3097 0.2769
vt 0.2862 0.2997
vt 0.2585 0.3176
vt 0.2277 0.3300
vt 0.1950 0.3363
vt 0.1617 0.3363
vt 0.1290 0.3300
vt 0.0982 0.3176
vt 0.0705 0.2997
vt 0.0469 0.2769
vt 0.0284 0.2501
vt 0.0157 0.2203
vt 0.0092 0.1887
vt 0.0092 0.1565
vt 0.0157 0.1248
vt 0.0284 0.0950
vt 0.0469 0.0682
vt 0.0705 0.0454
vt 0.0982 0.0275
vt 0.1290 0.0152
vt 0.1617 0.0089
vt 0.1950 0.0089
vt 0.2277 0.0152
vt 0.2585 0.0275
vt 0.2862 0.0454
vt 0.3097 0.0682
vt 0.3283 0.0950
vt 0.3410 0.1248
vt 0.7237 0.2063
vt 0.7237 0.0089
vt 0.7437 0.0089
vt 0.7437 0.2063
vt 0.7633 0.0089
vt 0.7633 0.2063
vt 0.7818 0.0089
vt 0.7818 0.2063
vt 0.7984 0.0089
vt 0.7984 0.2063
vt 0.8126 0.0089
vt 0.8126 0.2063
vt 0.3005 0.6992
vt 0.3005 0.8966
vt 0.2839 0.8966
vt 0.2839 0.6992
vt 0.2654 0.8966
vt 0.2654 0.6992
vt 0.2458 0.8966
vt 0.2458 0.6992
vt 0.2258 0.8966
vt 0.2258 0.6992
vt 0.2062 0.8966
vt 0.2062 0.6992
vt 0.1877 0.8966
vt 0.1877 0.6992
vt 0.1711 0.8966
vt 0.1711 0.6992
vt 0.0092 0.8966
vt 0.0092 0.6992
vt 0.0258 0.6992
vt 0.0258 0.8966
vt 0.0443 0.6992
vt 0.0443 0.8966
vt 0.0639 0.6992
vt 0.0639 0.8966
vt 0.0839 0.6992
vt 0.0839 0.8966
vt 0.1035 0.6992
vt 0.1035 0.8966
vt 0.1220 0.6992
vt 0.1220 0.8966
vt 0.1386 0.6992
vt 0.1386 0.8966
vt 0.1527 0.6992
vt 0.1527 0.8966
vt 0.6549 0.4214
vt 0.6549 0.2240
vt 0.6715 0.2240
vt 0.6715 0.4214
vt 0.6900 0.2240
vt 0.6900 0.4214
vt 0.7096 0.2240
vt 0.7096 0.4214
vt 0.7296 0.2240
vt 0.7296 0.4214
vt 0.7492 0.2240
vt 0.7492 0.4214
vt 0.7677 0.2240
vt 0.7677 0.4214
vt 0.7843 0.2240
vt 0.7843 0.4214
vt 0.7984 0.2240
vt 0.7984 0.4214
vt 0.6549 0.2063
vt 0.6549 0.0089
vt 0.6690 0.0089
vt 0.6690 0.2063
vt 0.6857 0.0089
vt 0.6857 0.2063
vt 0.6787 0.7647
vt 0.6591 0.7609
vt 0.6407 0.7535
vt 0.6240 0.7427
vt 0.6099 0.7291
vt 0.5988 0.7130
vt 0.5911 0.6951
vt 0.5872 0.6761
vt 0.5872 0.6568
vt 0.5911 0.6378
vt 0.5988 0.6199
vt 0.6099 0.6038
vt 0.6240 0.5902
vt 0.6407 0.5794
vt 0.6591 0.5720
vt 0.6787 0.5682
vt 0.6987 0.5682
vt 0.7183 0.5720
vt 0.7368 0.5794
vt 0.7534 0.5902
vt 0.7676 0.6038
vt 0.7787 0.6199
vt 0.7863 0.6378
vt 0.7902 0.6568
vt 0.7902 0.6761
vt 0.7863 0.6951
vt 0.7787 0.7130
vt 0.7676 0.7291
vt 0.7534 0.7427
vt 0.7368 0.7535
vt 0.7183 0.7609
vt 0.6987 0.7647
vt 0.7041 0.0089
vt 0.7041 0.2063
vt 0.4574 0.5682
vt 0.4774 0.5682
vt 0.4970 0.5720
vt 0.5155 0.5794
vt 0.5321 0.5902
vt 0.5462 0.6038
vt 0.5573 0.6199
vt 0.5650 0.6378
vt 0.5689 0.6568
vt 0.5689 0.6761
vt 0.5650 0.6951
vt 0.5573 0.7130
vt 0.5462 0.7291
vt 0.5321 0.7427
vt 0.5155 0.7535
vt 0.4970 0.7609
vt 0.4774 0.7647
vt 0.4574 0.7647
vt 0.4378 0.7609
vt 0.4193 0.7535
vt 0.4027 0.7427
vt 0.3885 0.7291
vt 0.3774 0.7130
vt 0.3698 0.6951
vt 0.3659 0.6761
vt 0.3659 0.6568
vt 0.3698 0.6378
vt 0.3774 0.6199
vt 0.3885 0.6038
vt 0.4027 0.5902
vt 0.4193 0.5794
vt 0.4378 0.5720
vn 0.0980 0.0000 -0.9952
vn 0.2903 0.0000 -0.9569
vn 0.4714 0.0000 -0.8819
vn 0.6344 0.0000 -0.7730
vn 0.7730 0.0000 -0.6344
vn 0.8819 0.0000 -0.4714
vn 0.9569 0.0000 -0.2903
vn 0.9952 0.0000 -0.0980
vn 0.9952 0.0000 0.0980
vn 0.9569 0.0000 0.2903
vn 0.8819 0.0000 0.4714
vn 0.7730 0.0000 0.6344
vn 0.6344 0.0000 0.7730
vn 0.4714 0.0000 0.8819
vn 0.2903 0.0000 0.9569
vn 0.0980 0.0000 0.9952
vn -0.0980 0.0000 0.9952
vn -0.2903 0.0000 0.9569
vn -0.4714 0.0000 0.8819
vn -0.6344 0.0000 0.7730
vn -0.7730 0.0000 0.6344
vn -0.8819 0.0000 0.4714
vn -0.9569 0.0000 0.2903
vn -0.9952 0.0000 0.0980
vn -0.9952 0.0000 -0.0980
vn -0.9569 0.0000 -0.2903
vn -0.8819 0.0000 -0.4714
vn -0.7730 0.0000 -0.6344
vn -0.6344 0.0000 -0.7730
vn -0.4714 0.0000 -0.8819
vn 0.0000 1.0000 -0.0000
vn -0.2903 0.0000 -0.9569
vn -0.0980 0.0000 -0.9952
vn 0.0000 -1.0000 0.0000
usemtl sprinkler_mat
s off
f 1/1/1 2/2/1 4/3/1 3/4/1
f 3/4/2 4/3/2 6/5/2 5/6/2
f 5/6/3 6/5/3 8/7/3 7/8/3
f 7/8/4 8/7/4 10/9/4 9/10/4
f 9/10/5 10/9/5 12/11/5 11/12/5
f 11/13/6 12/14/6 14/15/6 13/16/6
f 13/16/7 14/15/7 16/17/7 15/18/7
f 15/18/8 16/17/8 18/19/8 17/20/8
f 17/20/9 18/19/9 20/21/9 19/22/9
f 19/22/10 20/21/10 22/23/10 21/24/10
f 21/24/11 22/23/11 24/25/11 23/26/11
f 23/26/12 24/25/12 26/27/12 25/28/12
f 25/29/13 26/30/13 28/31/13 27/32/13
f 27/32/14 28/31/14 30/33/14 29/34/14
f 29/34/15 30/33/15 32/35/15 31/36/15
f 31/36/16 32/35/16 34/37/16 33/38/16
f 33/38/17 34/37/17 36/39/17 35/40/17
f 35/40/18 36/39/18 38/41/18 37/42/18
f 37/42/19 38/41/19 40/43/19 39/44/19
f 39/44/20 40/43/20 42/45/20 41/46/20
f 41/47/21 42/48/21 44/49/21 43/50/21
f 43/50/22 44/49/22 46/51/22 45/52/22
f 45/52/23 46/51/23 48/53/23 47/54/23
f 47/54/24 48/53/24 50/55/24 49/56/24
f 49/56/25 50/55/25 52/57/25 51/58/25
f 51/58/26 52/57/26 54/59/26 53/60/26
f 53/60/27 54/59/27 56/61/27 55/62/27
f 55/62/28 56/61/28 58/63/28 57/64/28
f 57/65/29 58/66/29 60/67/29 59/68/29
f 59/68/30 60/67/30 62/69/30 61/70/30
f 4/71/31 2/72/31 64/73/31 62/74/31 60/75/31 58/76/31 56/77/31 54/78/31 52/79/31 50/80/31 48/81/31 46/82/31 44/83/31 42/84/31 40/85/31 38/86/31 36/87/31 34/88/31 32/89/31 30/90/31 28/91/31 26/92/31 24/93/31 22/94/31 20/95/31 18/96/31 16/97/31 14/98/31 12/99/31 10/100/31 8/101/31 6/102/31
f 61/70/32 62/69/32 64/103/32 63/104/32
f 63/104/33 64/103/33 2/2/33 1/1/33
f 1/105/34 3/106/34 5/107/34 7/108/34 9/109/34 11/110/34 13/111/34 15/112/34 17/113/34 19/114/34 21/115/34 23/116/34 25/117/34 27/118/34 29/119/34 31/120/34 33/121/34 35/122/34 37/123/34 39/124/34 41/125/34 43/126/34 45/127/34 47/128/34 49/129/34 51/130/34 53/131/34 55/132/34 57/133/34 59/134/34 61/135/34 63/136/34
f 65/137/1 66/138/1 68/139/1 67/140/1
f 67/140/2 68/139/2 70/141/2 69/142/2
f 69/142/3 70/141/3 72/143/3 71/144/3
f 71/144/4 72/143/4 74/145/4 73/146/4
f 73/146/5 74/145/5 76/147/5 75/148/5
f 75/149/6 76/150/6 78/151/6 77/152/6
f 77/152/7 78/151/7 80/153/7 79/154/7
f 79/154/8 80/153/8 82/155/8 81/156/8
f 81/156/9 82/155/9 84/157/9 83/158/9
f 83/158/10 84/157/10 86/159/10 85/160/10
f 85/160/11 86/159/11 88/161/11 87/162/11
f 87/162/12 88/161/12 90/163/12 89/164/12
f 89/165/13 90/166/13 92/167/13 91/168/13
f 91/168/14 92/167/14 94/169/14 93/170/14
f 93/170/15 94/169/15 96/171/15 95/172/15
f 95/172/16 96/171/16 98/173/16 97/174/16
f 97/174/17 98/173/17 100/175/17 99/176/17
f 99/176/18 100/175/18 102/177/18 101/178/18
f 101/178/19 102/177/19 104/179/19 103/180/19
f 103/180/20 104/179/20 106/181/20 105/182/20
f 105/183/21 106/184/21 108/185/21 107/186/21
f 107/186/22 108/185/22 110/187/22 109/188/22
f 109/188/23 110/187/23 112/189/23 111/190/23
f 111/190/24 112/189/24 114/191/24 113/192/24
f 113/192/25 114/191/25 116/193/25 115/194/25
f 115/194/26 116/193/26 118/195/26 117/196/26
f 117/196/27 118/195/27 120/197/27 119/198/27
f 119/198/28 120/197/28 122/199/28 121/200/28
f 121/201/29 122/202/29 124/203/29 123/204/29
f 123/204/30 124/203/30 126/205/30 125/206/30
f 68/207/31 66/208/31 128/209/31 126/210/31 124/211/31 122/212/31 120/213/31 118/214/31 116/215/31 114/216/31 112/217/31 110/218/31 108/219/31 106/220/31 104/221/31 102/222/31 100/223/31 98/224/31 96/225/31 94/226/31 92/227/31 90/228/31 88/229/31 86/230/31 84/231/31 82/232/31 80/233/31 78/234/31 76/235/31 74/236/31 72/237/31 70/238/31
f 125/206/32 126/205/32 128/239/32 127/240/32
f 127/240/33 128/239/33 66/138/33 65/137/33
f 65/241/34 67/242/34 69/243/34 71/244/34 73/245/34 75/246/34 77/247/34 79/248/34 81/249/34 83/250/34 85/251/34 87/252/34 89/253/34 91/254/34 93/255/34 95/256/34 97/257/34 99/258/34 101/259/34 103/260/34 105/261/34 107/262/34 109/263/34 111/264/34 113/265/34 115/266/34 117/267/34 119/268/34 121/269/34 123/270/34 125/271/34 127/272/34
f 129/273/1 130/274/1 132/275/1 131/276/1
f 131/276/2 132/275/2 134/277/2 133/278/2
f 133/278/3 134/277/3 136/279/3 135/280/3
f 135/280/4 136/279/4 138/281/4 137/282/4
f 137/282/5 138/281/5 140/283/5 139/284/5
f 139/285/6 140/286/6 142/287/6 141/288/6
f 141/288/7 142/287/7 144/289/7 143/290/7
f 143/290/8 144/289/8 146/291/8 145/292/8
f 145/292/9 146/291/9 148/293/9 147/294/9
f 147/294/10 148/293/10 150/295/10 149/296/10
f 149/296/11 150/295/11 152/297/11 151/298/11
f 151/298/12 152/297/12 154/299/12 153/300/12
f 153/301/13 154/302/13 156/303/13 155/304/13
f 155/304/14 156/303/14 158/305/14 157/306/14
f 157/306/15 158/305/15 160/307/15 159/308/15
f 159/308/16 160/307/16 162/309/16 161/310/16
f 161/310/17 162/309/17 164/311/17 163/312/17
f 163/312/18 164/311/18 166/313/18 165/314/18
f 165/314/19 166/313/19 168/315/19 167/316/19
f 167/316/20 168/315/20 170/317/20 169/318/20
f 169/319/21 170/320/21 172/321/21 171/322/21
f 171/322/22 172/321/22 174/323/22 173/324/22
f 173/324/23 174/323/23 176/325/23 175/326/23
f 175/326/24 176/325/24 178/327/24 177/328/24
f 177/328/25 178/327/25 180/329/25 179/330/25
f 179/330/26 180/329/26 182/331/26 181/332/26
f 181/332/27 182/331/27 184/333/27 183/334/27
f 183/334/28 184/333/28 186/335/28 185/336/28
f 185/337/29 186/338/29 188/339/29 187/340/29
f 187/340/30 188/339/30 190/341/30 189/342/30
f 132/343/31 130/344/31 192/345/31 190/346/31 188/347/31 186/348/31 184/349/31 182/350/31 180/351/31 178/352/31 176/353/31 174/354/31 172/355/31 170/356/31 168/357/31 166/358/31 164/359/31 162/360/31 160/361/31 158/362/31 156/363/31 154/364/31 152/365/31 150/366/31 148/367/31 146/368/31 144/369/31 142/370/31 140/371/31 138/372/31 136/373/31 134/374/31
f 189/342/32 190/341/32 192/375/32 191/376/32
f 191/376/33 192/375/33 130/274/33 129/273/33
f 129/377/34 131/378/34 133/379/34 135/380/34 137/381/34 139/382/34 141/383/34 143/384/34 145/385/34 147/386/34 149/387/34 151/388/34 153/389/34 155/390/34 157/391/34 159/392/34 161/393/34 163/394/34 165/395/34 167/396/34 169/397/34 171/398/34 173/399/34 175/400/34 177/401/34 179/402/34 181/403/34 183/404/34 185/405/34 187/406/34 189/407/34 191/408/34
